<?xml version="1.0" encoding="UTF-8"?>
<!-- Generator: Adobe Illustrator 21.1.0, SVG Export Plug-In . SVG Version: 6.00 Build 0)  -->
<svg version="1.1" id="Layer_1" xmlns="http://www.w3.org/2000/svg" xmlns:xlink="http://www.w3.org/1999/xlink" x="0px" y="0px" viewBox="0 0 1140 710" style="enable-background:new 0 0 1140 710;" xml:space="preserve">
<style type="text/css">
	.st0{clip-path:url(#SVGID_2_);fill:#FFFFFF;}
	.st1{opacity:0;fill-rule:evenodd;clip-rule:evenodd;fill:#FFFFFF;}
	.st2{clip-path:url(#SVGID_4_);}
	.st3{clip-path:url(#SVGID_6_);fill:#AEAEAE;}
	.st4{clip-path:url(#SVGID_8_);}
	.st5{clip-path:url(#SVGID_10_);fill:#AEAEAE;}
	.st6{clip-path:url(#SVGID_12_);}
	.st7{clip-path:url(#SVGID_14_);fill:#AEAEAE;}
	.st8{clip-path:url(#SVGID_16_);}
	.st9{clip-path:url(#SVGID_18_);fill:#AEAEAE;}
	.st10{clip-path:url(#SVGID_20_);}
	.st11{clip-path:url(#SVGID_22_);fill:#AEAEAE;}
	.st12{clip-path:url(#SVGID_24_);}
	.st13{clip-path:url(#SVGID_26_);fill:#AEAEAE;}
	.st14{clip-path:url(#SVGID_28_);}
	.st15{clip-path:url(#SVGID_30_);fill:#AEAEAE;}
	.st16{clip-path:url(#SVGID_32_);}
	.st17{clip-path:url(#SVGID_34_);fill:#AEAEAE;}
	.st18{clip-path:url(#SVGID_36_);}
	.st19{clip-path:url(#SVGID_38_);fill:#AEAEAE;}
	.st20{clip-path:url(#SVGID_40_);}
	.st21{clip-path:url(#SVGID_42_);fill:#AEAEAE;}
	.st22{clip-path:url(#SVGID_44_);}
	.st23{clip-path:url(#SVGID_46_);fill:#AEAEAE;}
	.st24{clip-path:url(#SVGID_48_);}
	.st25{clip-path:url(#SVGID_50_);fill:#AEAEAE;}
	.st26{clip-path:url(#SVGID_52_);}
	.st27{clip-path:url(#SVGID_54_);fill:#AEAEAE;}
	.st28{clip-path:url(#SVGID_56_);}
	.st29{clip-path:url(#SVGID_58_);fill:#AEAEAE;}
	.st30{clip-path:url(#SVGID_60_);}
	.st31{clip-path:url(#SVGID_62_);fill:#AEAEAE;}
	.st32{clip-path:url(#SVGID_64_);}
	.st33{clip-path:url(#SVGID_66_);fill:#AEAEAE;}
	.st34{clip-path:url(#SVGID_68_);}
	.st35{clip-path:url(#SVGID_70_);fill:#AEAEAE;}
	.st36{clip-path:url(#SVGID_72_);}
	.st37{clip-path:url(#SVGID_74_);fill:#AEAEAE;}
	.st38{clip-path:url(#SVGID_76_);}
	.st39{clip-path:url(#SVGID_78_);fill:#AEAEAE;}
	.st40{clip-path:url(#SVGID_80_);}
	.st41{clip-path:url(#SVGID_82_);fill:#AEAEAE;}
	.st42{clip-path:url(#SVGID_84_);}
	.st43{clip-path:url(#SVGID_86_);fill:#AEAEAE;}
	.st44{clip-path:url(#SVGID_88_);}
	.st45{clip-path:url(#SVGID_90_);fill:#AEAEAE;}
	.st46{clip-path:url(#SVGID_92_);}
	.st47{clip-path:url(#SVGID_94_);fill:#AEAEAE;}
	.st48{clip-path:url(#SVGID_96_);}
	.st49{clip-path:url(#SVGID_98_);fill:#AEAEAE;}
	.st50{clip-path:url(#SVGID_100_);}
	.st51{clip-path:url(#SVGID_102_);fill:#AEAEAE;}
	.st52{clip-path:url(#SVGID_104_);}
	.st53{clip-path:url(#SVGID_106_);fill:#D83B01;}
	.st54{clip-path:url(#SVGID_108_);}
	.st55{clip-path:url(#SVGID_110_);fill:#FFFFFF;}
	.st56{clip-path:url(#SVGID_112_);}
	.st57{clip-path:url(#SVGID_114_);fill:#FFFFFF;}
	.st58{clip-path:url(#SVGID_116_);}
	.st59{clip-path:url(#SVGID_118_);fill:#333333;}
	.st60{clip-path:url(#SVGID_120_);}
	.st61{clip-path:url(#SVGID_122_);fill:#666666;}
</style>
<title>Artboard 1</title>
<g>
	<defs>
		<rect id="SVGID_1_" y="0.8" width="1140" height="709.5"/>
	</defs>
	<use xlink:href="#SVGID_1_" style="overflow:visible;fill:#FFFFFF;"/>
	<clipPath id="SVGID_2_">
		<use xlink:href="#SVGID_1_" style="overflow:visible;"/>
	</clipPath>
	<rect x="-15.2" y="-14.4" class="st0" width="1170.3" height="738.3"/>
</g>
<rect y="0.8" class="st1" width="1140" height="708"/>
<g>
	<defs>
		<path id="SVGID_3_" d="M580.8,185c-1.5,0-2.9-0.6-4-1.7c-1.1-1.1-1.7-2.5-1.7-4c0-0.4,0-0.7,0.1-1.1c0.1-0.3,0.2-0.7,0.3-1    c0.1-0.3,0.3-0.7,0.5-1c0.2-0.3,0.4-0.6,0.7-0.9c2.1-2.1,5.9-2.1,7.9,0c0.3,0.3,0.5,0.6,0.7,0.9c0.2,0.3,0.4,0.6,0.5,1    c0.1,0.3,0.3,0.7,0.3,1c0.1,0.4,0.1,0.7,0.1,1.1c0,1.5-0.6,2.9-1.7,4C583.7,184.4,582.3,185,580.8,185"/>
	</defs>
	<clipPath id="SVGID_4_">
		<use xlink:href="#SVGID_3_" style="overflow:visible;"/>
	</clipPath>
	<g class="st2">
		<defs>
			<rect id="SVGID_5_" x="0" y="0.8" width="1140" height="709.5"/>
		</defs>
		<clipPath id="SVGID_6_">
			<use xlink:href="#SVGID_5_" style="overflow:visible;"/>
		</clipPath>
		<rect x="560" y="158.6" class="st3" width="41.6" height="41.5"/>
	</g>
</g>
<g>
	<defs>
		<path id="SVGID_7_" d="M463.7,382.3c-2.7-1.6-6.1-0.6-7.7,2.1c-1.6,2.7-0.6,6.1,2.1,7.7c0.9,0.5,1.8,0.8,2.8,0.8    c1.9,0,3.9-1,4.9-2.8C467.3,387.3,466.4,383.8,463.7,382.3"/>
	</defs>
	<clipPath id="SVGID_8_">
		<use xlink:href="#SVGID_7_" style="overflow:visible;"/>
	</clipPath>
	<g class="st4">
		<defs>
			<rect id="SVGID_9_" x="0" y="0.8" width="1140" height="709.5"/>
		</defs>
		<clipPath id="SVGID_10_">
			<use xlink:href="#SVGID_9_" style="overflow:visible;"/>
		</clipPath>
		<rect x="440.1" y="366.4" class="st5" width="41.6" height="41.6"/>
	</g>
</g>
<g>
	<defs>
		<path id="SVGID_11_" d="M480.8,352.6c-2.7-1.5-6.1-0.6-7.7,2.1c-1.5,2.7-0.6,6.2,2.1,7.7c0.9,0.5,1.9,0.8,2.8,0.8    c1.9,0,3.8-1,4.9-2.8C484.4,357.6,483.5,354.1,480.8,352.6"/>
	</defs>
	<clipPath id="SVGID_12_">
		<use xlink:href="#SVGID_11_" style="overflow:visible;"/>
	</clipPath>
	<g class="st6">
		<defs>
			<rect id="SVGID_13_" x="0" y="0.8" width="1140" height="709.5"/>
		</defs>
		<clipPath id="SVGID_14_">
			<use xlink:href="#SVGID_13_" style="overflow:visible;"/>
		</clipPath>
		<rect x="457.2" y="336.7" class="st7" width="41.6" height="41.6"/>
	</g>
</g>
<g>
	<defs>
		<path id="SVGID_15_" d="M446.5,412c-2.7-1.5-6.1-0.6-7.7,2.1c-1.6,2.7-0.6,6.1,2.1,7.7c0.9,0.5,1.9,0.8,2.8,0.8    c1.9,0,3.8-1,4.9-2.8C450.1,417,449.2,413.5,446.5,412"/>
	</defs>
	<clipPath id="SVGID_16_">
		<use xlink:href="#SVGID_15_" style="overflow:visible;"/>
	</clipPath>
	<g class="st8">
		<defs>
			<rect id="SVGID_17_" x="0" y="0.8" width="1140" height="709.5"/>
		</defs>
		<clipPath id="SVGID_18_">
			<use xlink:href="#SVGID_17_" style="overflow:visible;"/>
		</clipPath>
		<rect x="422.9" y="396" class="st9" width="41.6" height="41.6"/>
	</g>
</g>
<g>
	<defs>
		<path id="SVGID_19_" d="M429.4,441.6c-2.7-1.5-6.1-0.6-7.7,2.1c-1.6,2.7-0.6,6.1,2.1,7.7c0.9,0.5,1.9,0.8,2.8,0.8    c1.9,0,3.8-1,4.9-2.8C433,446.6,432.1,443.2,429.4,441.6"/>
	</defs>
	<clipPath id="SVGID_20_">
		<use xlink:href="#SVGID_19_" style="overflow:visible;"/>
	</clipPath>
	<g class="st10">
		<defs>
			<rect id="SVGID_21_" x="0" y="0.8" width="1140" height="709.5"/>
		</defs>
		<clipPath id="SVGID_22_">
			<use xlink:href="#SVGID_21_" style="overflow:visible;"/>
		</clipPath>
		<rect x="405.8" y="425.7" class="st11" width="41.6" height="41.6"/>
	</g>
</g>
<g>
	<defs>
		<path id="SVGID_23_" d="M566.5,204.1c-2.7-1.6-6.1-0.6-7.7,2.1c-1.5,2.7-0.6,6.1,2.1,7.7c0.9,0.5,1.9,0.8,2.8,0.8    c1.9,0,3.8-1,4.9-2.8C570.1,209.1,569.2,205.7,566.5,204.1"/>
	</defs>
	<clipPath id="SVGID_24_">
		<use xlink:href="#SVGID_23_" style="overflow:visible;"/>
	</clipPath>
	<g class="st12">
		<defs>
			<rect id="SVGID_25_" x="0" y="0.8" width="1140" height="709.5"/>
		</defs>
		<clipPath id="SVGID_26_">
			<use xlink:href="#SVGID_25_" style="overflow:visible;"/>
		</clipPath>
		<rect x="542.9" y="188.2" class="st13" width="41.6" height="41.6"/>
	</g>
</g>
<g>
	<defs>
		<path id="SVGID_27_" d="M498,322.9c-2.7-1.5-6.1-0.6-7.7,2.1c-1.6,2.7-0.6,6.1,2.1,7.7c0.9,0.5,1.9,0.8,2.8,0.8    c1.9,0,3.8-1,4.9-2.8C501.6,327.9,500.6,324.4,498,322.9"/>
	</defs>
	<clipPath id="SVGID_28_">
		<use xlink:href="#SVGID_27_" style="overflow:visible;"/>
	</clipPath>
	<g class="st14">
		<defs>
			<rect id="SVGID_29_" x="0" y="0.8" width="1140" height="709.5"/>
		</defs>
		<clipPath id="SVGID_30_">
			<use xlink:href="#SVGID_29_" style="overflow:visible;"/>
		</clipPath>
		<rect x="474.3" y="307" class="st15" width="41.6" height="41.6"/>
	</g>
</g>
<g>
	<defs>
		<path id="SVGID_31_" d="M532.2,263.5c-2.7-1.5-6.1-0.6-7.7,2.1c-1.5,2.7-0.6,6.1,2.1,7.7c0.9,0.5,1.9,0.8,2.8,0.8    c1.9,0,3.8-1,4.9-2.8C535.8,268.5,534.9,265.1,532.2,263.5"/>
	</defs>
	<clipPath id="SVGID_32_">
		<use xlink:href="#SVGID_31_" style="overflow:visible;"/>
	</clipPath>
	<g class="st16">
		<defs>
			<rect id="SVGID_33_" x="0" y="0.8" width="1140" height="709.5"/>
		</defs>
		<clipPath id="SVGID_34_">
			<use xlink:href="#SVGID_33_" style="overflow:visible;"/>
		</clipPath>
		<rect x="508.6" y="247.6" class="st17" width="41.6" height="41.6"/>
	</g>
</g>
<g>
	<defs>
		<path id="SVGID_35_" d="M515.1,293.2c-2.7-1.5-6.1-0.6-7.7,2.1c-1.5,2.7-0.6,6.1,2.1,7.7c0.9,0.5,1.9,0.8,2.8,0.8    c1.9,0,3.9-1,4.9-2.8C518.7,298.2,517.8,294.7,515.1,293.2"/>
	</defs>
	<clipPath id="SVGID_36_">
		<use xlink:href="#SVGID_35_" style="overflow:visible;"/>
	</clipPath>
	<g class="st18">
		<defs>
			<rect id="SVGID_37_" x="0" y="0.8" width="1140" height="709.5"/>
		</defs>
		<clipPath id="SVGID_38_">
			<use xlink:href="#SVGID_37_" style="overflow:visible;"/>
		</clipPath>
		<rect x="491.5" y="277.3" class="st19" width="41.6" height="41.6"/>
	</g>
</g>
<g>
	<defs>
		<path id="SVGID_39_" d="M580.8,530c-3.1,0-5.6,2.5-5.6,5.6c0,3.1,2.5,5.6,5.6,5.6c3.1,0,5.6-2.5,5.6-5.6    C586.5,532.5,583.9,530,580.8,530"/>
	</defs>
	<clipPath id="SVGID_40_">
		<use xlink:href="#SVGID_39_" style="overflow:visible;"/>
	</clipPath>
	<g class="st20">
		<defs>
			<rect id="SVGID_41_" x="0" y="0.8" width="1140" height="709.5"/>
		</defs>
		<clipPath id="SVGID_42_">
			<use xlink:href="#SVGID_41_" style="overflow:visible;"/>
		</clipPath>
		<rect x="560" y="514.8" class="st21" width="41.6" height="41.6"/>
	</g>
</g>
<g>
	<defs>
		<path id="SVGID_43_" d="M546.6,530c-3.1,0-5.6,2.5-5.6,5.6c0,3.1,2.5,5.6,5.6,5.6c3.1,0,5.6-2.5,5.6-5.6    C552.2,532.5,549.7,530,546.6,530"/>
	</defs>
	<clipPath id="SVGID_44_">
		<use xlink:href="#SVGID_43_" style="overflow:visible;"/>
	</clipPath>
	<g class="st22">
		<defs>
			<rect id="SVGID_45_" x="0" y="0.8" width="1140" height="709.5"/>
		</defs>
		<clipPath id="SVGID_46_">
			<use xlink:href="#SVGID_45_" style="overflow:visible;"/>
		</clipPath>
		<rect x="525.8" y="514.8" class="st23" width="41.6" height="41.6"/>
	</g>
</g>
<g>
	<defs>
		<path id="SVGID_47_" d="M512.3,530c-3.1,0-5.6,2.5-5.6,5.6c0,3.1,2.5,5.6,5.6,5.6c3.1,0,5.6-2.5,5.6-5.6    C517.9,532.5,515.4,530,512.3,530"/>
	</defs>
	<clipPath id="SVGID_48_">
		<use xlink:href="#SVGID_47_" style="overflow:visible;"/>
	</clipPath>
	<g class="st24">
		<defs>
			<rect id="SVGID_49_" x="0" y="0.8" width="1140" height="709.5"/>
		</defs>
		<clipPath id="SVGID_50_">
			<use xlink:href="#SVGID_49_" style="overflow:visible;"/>
		</clipPath>
		<rect x="491.5" y="514.8" class="st25" width="41.6" height="41.6"/>
	</g>
</g>
<g>
	<defs>
		<path id="SVGID_51_" d="M478,530c-3.1,0-5.6,2.5-5.6,5.6c0,3.1,2.5,5.6,5.6,5.6c3.1,0,5.6-2.5,5.6-5.6    C483.6,532.5,481.1,530,478,530"/>
	</defs>
	<clipPath id="SVGID_52_">
		<use xlink:href="#SVGID_51_" style="overflow:visible;"/>
	</clipPath>
	<g class="st26">
		<defs>
			<rect id="SVGID_53_" x="0" y="0.8" width="1140" height="709.5"/>
		</defs>
		<clipPath id="SVGID_54_">
			<use xlink:href="#SVGID_53_" style="overflow:visible;"/>
		</clipPath>
		<rect x="457.2" y="514.8" class="st27" width="41.6" height="41.6"/>
	</g>
</g>
<g>
	<defs>
		<path id="SVGID_55_" d="M683.7,530c-3.1,0-5.6,2.5-5.6,5.6c0,3.1,2.5,5.6,5.6,5.6c3.1,0,5.6-2.5,5.6-5.6    C689.3,532.5,686.8,530,683.7,530"/>
	</defs>
	<clipPath id="SVGID_56_">
		<use xlink:href="#SVGID_55_" style="overflow:visible;"/>
	</clipPath>
	<g class="st28">
		<defs>
			<rect id="SVGID_57_" x="0" y="0.8" width="1140" height="709.5"/>
		</defs>
		<clipPath id="SVGID_58_">
			<use xlink:href="#SVGID_57_" style="overflow:visible;"/>
		</clipPath>
		<rect x="662.9" y="514.8" class="st29" width="41.6" height="41.6"/>
	</g>
</g>
<g>
	<defs>
		<path id="SVGID_59_" d="M649.4,530c-3.1,0-5.6,2.5-5.6,5.6c0,3.1,2.5,5.6,5.6,5.6c3.1,0,5.7-2.5,5.7-5.6    C655.1,532.5,652.5,530,649.4,530"/>
	</defs>
	<clipPath id="SVGID_60_">
		<use xlink:href="#SVGID_59_" style="overflow:visible;"/>
	</clipPath>
	<g class="st30">
		<defs>
			<rect id="SVGID_61_" x="0" y="0.8" width="1140" height="709.5"/>
		</defs>
		<clipPath id="SVGID_62_">
			<use xlink:href="#SVGID_61_" style="overflow:visible;"/>
		</clipPath>
		<rect x="628.6" y="514.8" class="st31" width="41.6" height="41.6"/>
	</g>
</g>
<g>
	<defs>
		<path id="SVGID_63_" d="M615.1,530c-3.1,0-5.6,2.5-5.6,5.6c0,3.1,2.5,5.6,5.6,5.6c3.1,0,5.6-2.5,5.6-5.6    C620.7,532.5,618.2,530,615.1,530"/>
	</defs>
	<clipPath id="SVGID_64_">
		<use xlink:href="#SVGID_63_" style="overflow:visible;"/>
	</clipPath>
	<g class="st32">
		<defs>
			<rect id="SVGID_65_" x="0" y="0.8" width="1140" height="709.5"/>
		</defs>
		<clipPath id="SVGID_66_">
			<use xlink:href="#SVGID_65_" style="overflow:visible;"/>
		</clipPath>
		<rect x="594.3" y="514.8" class="st33" width="41.6" height="41.6"/>
	</g>
</g>
<g>
	<defs>
		<path id="SVGID_67_" d="M646.6,293.2c-2.7,1.5-3.6,5-2.1,7.7c1,1.8,2.9,2.8,4.9,2.8c1,0,1.9-0.2,2.8-0.8c2.7-1.5,3.6-5,2.1-7.7    C652.7,292.6,649.3,291.7,646.6,293.2"/>
	</defs>
	<clipPath id="SVGID_68_">
		<use xlink:href="#SVGID_67_" style="overflow:visible;"/>
	</clipPath>
	<g class="st34">
		<defs>
			<rect id="SVGID_69_" x="0" y="0.8" width="1140" height="709.5"/>
		</defs>
		<clipPath id="SVGID_70_">
			<use xlink:href="#SVGID_69_" style="overflow:visible;"/>
		</clipPath>
		<rect x="628.6" y="277.3" class="st35" width="41.6" height="41.6"/>
	</g>
</g>
<g>
	<defs>
		<path id="SVGID_71_" d="M629.5,263.5c-2.7,1.5-3.6,5-2.1,7.7c1.1,1.8,3,2.8,4.9,2.8c1,0,1.9-0.3,2.8-0.8c2.7-1.5,3.6-5,2.1-7.7    C635.6,262.9,632.1,262,629.5,263.5"/>
	</defs>
	<clipPath id="SVGID_72_">
		<use xlink:href="#SVGID_71_" style="overflow:visible;"/>
	</clipPath>
	<g class="st36">
		<defs>
			<rect id="SVGID_73_" x="0" y="0.8" width="1140" height="709.5"/>
		</defs>
		<clipPath id="SVGID_74_">
			<use xlink:href="#SVGID_73_" style="overflow:visible;"/>
		</clipPath>
		<rect x="611.5" y="247.6" class="st37" width="41.6" height="41.6"/>
	</g>
</g>
<g>
	<defs>
		<path id="SVGID_75_" d="M663.7,322.9c-2.7,1.5-3.6,5-2.1,7.7c1,1.8,2.9,2.8,4.9,2.8c1,0,1.9-0.2,2.8-0.7c2.7-1.6,3.6-5,2.1-7.7    C669.9,322.3,666.4,321.3,663.7,322.9"/>
	</defs>
	<clipPath id="SVGID_76_">
		<use xlink:href="#SVGID_75_" style="overflow:visible;"/>
	</clipPath>
	<g class="st38">
		<defs>
			<rect id="SVGID_77_" x="0" y="0.8" width="1140" height="709.5"/>
		</defs>
		<clipPath id="SVGID_78_">
			<use xlink:href="#SVGID_77_" style="overflow:visible;"/>
		</clipPath>
		<rect x="645.7" y="307" class="st39" width="41.6" height="41.6"/>
	</g>
</g>
<g>
	<defs>
		<path id="SVGID_79_" d="M612.3,233.8c-2.7,1.5-3.6,5-2.1,7.7c1,1.8,2.9,2.8,4.9,2.8c1,0,1.9-0.3,2.8-0.8c2.7-1.5,3.6-5,2.1-7.7    C618.4,233.2,615,232.3,612.3,233.8"/>
	</defs>
	<clipPath id="SVGID_80_">
		<use xlink:href="#SVGID_79_" style="overflow:visible;"/>
	</clipPath>
	<g class="st40">
		<defs>
			<rect id="SVGID_81_" x="0" y="0.8" width="1140" height="709.5"/>
		</defs>
		<clipPath id="SVGID_82_">
			<use xlink:href="#SVGID_81_" style="overflow:visible;"/>
		</clipPath>
		<rect x="594.3" y="217.9" class="st41" width="41.6" height="41.6"/>
	</g>
</g>
<g>
	<defs>
		<path id="SVGID_83_" d="M595.2,204.1c-2.7,1.6-3.6,5-2.1,7.7c1,1.8,3,2.8,4.9,2.8c1,0,1.9-0.3,2.8-0.8c2.7-1.5,3.6-5,2.1-7.7    C601.3,203.5,597.9,202.6,595.2,204.1"/>
	</defs>
	<clipPath id="SVGID_84_">
		<use xlink:href="#SVGID_83_" style="overflow:visible;"/>
	</clipPath>
	<g class="st42">
		<defs>
			<rect id="SVGID_85_" x="0" y="0.8" width="1140" height="709.5"/>
		</defs>
		<clipPath id="SVGID_86_">
			<use xlink:href="#SVGID_85_" style="overflow:visible;"/>
		</clipPath>
		<rect x="577.2" y="188.2" class="st43" width="41.6" height="41.6"/>
	</g>
</g>
<g>
	<defs>
		<path id="SVGID_87_" d="M732.3,441.6c-2.7,1.5-3.6,5-2.1,7.7c1,1.8,3,2.8,4.9,2.8c1,0,1.9-0.3,2.8-0.8c2.7-1.5,3.6-5,2.1-7.7    C738.4,441,735,440.1,732.3,441.6"/>
	</defs>
	<clipPath id="SVGID_88_">
		<use xlink:href="#SVGID_87_" style="overflow:visible;"/>
	</clipPath>
	<g class="st44">
		<defs>
			<rect id="SVGID_89_" x="0" y="0.8" width="1140" height="709.5"/>
		</defs>
		<clipPath id="SVGID_90_">
			<use xlink:href="#SVGID_89_" style="overflow:visible;"/>
		</clipPath>
		<rect x="714.3" y="425.7" class="st45" width="41.6" height="41.6"/>
	</g>
</g>
<g>
	<defs>
		<path id="SVGID_91_" d="M680.9,352.6c-2.7,1.5-3.6,5-2.1,7.7c1,1.8,2.9,2.8,4.9,2.8c1,0,1.9-0.3,2.8-0.8c2.7-1.5,3.6-5,2.1-7.7    C687,351.9,683.6,351,680.9,352.6"/>
	</defs>
	<clipPath id="SVGID_92_">
		<use xlink:href="#SVGID_91_" style="overflow:visible;"/>
	</clipPath>
	<g class="st46">
		<defs>
			<rect id="SVGID_93_" x="0" y="0.8" width="1140" height="709.5"/>
		</defs>
		<clipPath id="SVGID_94_">
			<use xlink:href="#SVGID_93_" style="overflow:visible;"/>
		</clipPath>
		<rect x="662.9" y="336.7" class="st47" width="41.6" height="41.6"/>
	</g>
</g>
<g>
	<defs>
		<path id="SVGID_95_" d="M715.2,412c-2.7,1.5-3.6,5-2.1,7.7c1,1.8,2.9,2.8,4.9,2.8c1,0,1.9-0.3,2.8-0.8c2.7-1.5,3.6-5,2.1-7.7    C721.3,411.3,717.9,410.4,715.2,412"/>
	</defs>
	<clipPath id="SVGID_96_">
		<use xlink:href="#SVGID_95_" style="overflow:visible;"/>
	</clipPath>
	<g class="st48">
		<defs>
			<rect id="SVGID_97_" x="0" y="0.8" width="1140" height="709.5"/>
		</defs>
		<clipPath id="SVGID_98_">
			<use xlink:href="#SVGID_97_" style="overflow:visible;"/>
		</clipPath>
		<rect x="697.2" y="396" class="st49" width="41.6" height="41.6"/>
	</g>
</g>
<g>
	<defs>
		<path id="SVGID_99_" d="M698,382.3c-2.7,1.6-3.6,5-2.1,7.7c1,1.8,2.9,2.8,4.9,2.8c1,0,1.9-0.3,2.8-0.8c2.7-1.5,3.6-5,2.1-7.7    C704.1,381.6,700.7,380.7,698,382.3"/>
	</defs>
	<clipPath id="SVGID_100_">
		<use xlink:href="#SVGID_99_" style="overflow:visible;"/>
	</clipPath>
	<g class="st50">
		<defs>
			<rect id="SVGID_101_" x="0" y="0.8" width="1140" height="709.5"/>
		</defs>
		<clipPath id="SVGID_102_">
			<use xlink:href="#SVGID_101_" style="overflow:visible;"/>
		</clipPath>
		<rect x="680" y="366.4" class="st51" width="41.6" height="41.6"/>
	</g>
</g>
<g>
	<defs>
		<path id="SVGID_103_" d="M680.9,162.4c0.2,12.9-2,24.5-6.4,34.7c-4.5,10.3-11.9,19.4-22.2,27.3l-60.6,46.3c-1.4,1-2.9,1.4-4.5,1.4    c-2.2,0-4.1-0.8-5.5-2.4c-1.4-1.6-2.1-3.5-2.1-5.7v0.2v-28.2h-25.1c-8.4,0-16.9-0.8-25.3-2.5c-8.4-1.7-15.9-4.7-22.4-9.2    c-13.1-9.2-21.6-21.8-25.5-37.7c-1.9-8-2.9-16.1-3-24.6c-0.1-8.4,0.9-16.5,2.9-24.3c2-7.8,5.1-15,9.3-21.5    c4.2-6.5,9.6-12,16.1-16.3c6.5-4.4,14.2-7.4,23.2-9.2c8.3-1.6,16.6-2.7,24.9-3.3c8.4-0.6,16.7-1,24.9-1c8.3,0,16.6,0.3,25.1,1    c8.4,0.6,16.7,1.8,24.8,3.3c8.9,1.8,16.6,4.8,23.2,9.2c6.5,4.4,11.9,9.8,16.1,16.3c4.2,6.5,7.3,13.7,9.3,21.5    C679.9,145.6,680.9,153.8,680.9,162.4"/>
	</defs>
	<clipPath id="SVGID_104_">
		<use xlink:href="#SVGID_103_" style="overflow:visible;"/>
	</clipPath>
	<g class="st52">
		<defs>
			<rect id="SVGID_105_" x="0" y="0.8" width="1140" height="709.5"/>
		</defs>
		<clipPath id="SVGID_106_">
			<use xlink:href="#SVGID_105_" style="overflow:visible;"/>
		</clipPath>
		<rect x="462.9" y="71.3" class="st53" width="233.1" height="216"/>
	</g>
</g>
<g>
	<defs>
		<path id="SVGID_107_" d="M634.6,148.3c0-2.1-0.7-3.7-2.1-5c-1.4-1.3-3.2-1.9-5.3-1.9h-95.5c-2.1,0-3.8,0.6-5.1,1.9    c-1.4,1.3-2,2.9-2,5c0,2.1,0.7,3.7,2,5c1.4,1.3,3.1,1.9,5.1,1.9h95.5c2.1,0,3.8-0.6,5.3-1.9C633.8,152,634.6,150.4,634.6,148.3"/>
	</defs>
	<clipPath id="SVGID_108_">
		<use xlink:href="#SVGID_107_" style="overflow:visible;"/>
	</clipPath>
	<g class="st54">
		<defs>
			<rect id="SVGID_109_" x="0" y="0.8" width="1140" height="709.5"/>
		</defs>
		<clipPath id="SVGID_110_">
			<use xlink:href="#SVGID_109_" style="overflow:visible;"/>
		</clipPath>
		<rect x="509.4" y="126.2" class="st55" width="140.4" height="44.2"/>
	</g>
</g>
<g>
	<defs>
		<path id="SVGID_111_" d="M593.3,176c0-1.9-0.7-3.5-2-4.9c-1.4-1.4-3-2-4.9-2h-55.1c-1.9,0-3.5,0.7-4.8,2c-1.3,1.4-1.9,3-1.9,4.9    c0,1.9,0.6,3.5,1.9,4.8c1.3,1.3,2.9,1.9,4.8,1.9h55.1c1.9,0,3.5-0.6,4.9-1.9C592.6,179.5,593.3,177.9,593.3,176"/>
	</defs>
	<clipPath id="SVGID_112_">
		<use xlink:href="#SVGID_111_" style="overflow:visible;"/>
	</clipPath>
	<g class="st56">
		<defs>
			<rect id="SVGID_113_" x="0" y="0.8" width="1140" height="709.5"/>
		</defs>
		<clipPath id="SVGID_114_">
			<use xlink:href="#SVGID_113_" style="overflow:visible;"/>
		</clipPath>
		<rect x="509.4" y="153.9" class="st57" width="99.1" height="43.9"/>
	</g>
</g>
<g>
	<defs>
		<path id="SVGID_115_" d="M425.9,552.5c2.9,0,5.6,0.6,8.4,1.7c2.7,1.1,5.1,2.7,7.2,4.8l21.7,21.7c2.1,2.1,3.7,4.5,4.8,7.2    c1.1,2.7,1.7,5.5,1.7,8.3c0,2.9-0.6,5.6-1.7,8.2c-1.1,2.6-2.7,5-4.8,7.3c-3.7,3.8-7,7.2-10.1,10.1c-3.1,2.9-6.3,5.4-9.7,7.4    c-3.3,2-7,3.5-11,4.5c-4,1-8.8,1.6-14.6,1.6c-8.3,0-16.8-1.3-25.5-3.9c-8.7-2.6-17.4-6.2-26-10.7c-8.6-4.5-17.1-9.9-25.4-16.2    c-8.3-6.3-16.2-13.1-23.5-20.5c-7.3-7.4-14.1-15.2-20.3-23.5c-6.2-8.3-11.5-16.7-16-25.4c-4.5-8.7-7.9-17.3-10.4-25.9    c-2.5-8.6-3.8-16.9-3.9-24.8c0-5.7,0.5-10.6,1.6-14.6c1-4,2.6-7.6,4.7-11c2.1-3.3,4.5-6.6,7.4-9.7c2.9-3.1,6.2-6.5,10-10.1    c2.2-2.2,4.7-3.9,7.3-4.9c2.6-1,5.4-1.6,8.2-1.6c2.9,0,5.6,0.6,8.3,1.7c2.7,1.1,5.1,2.7,7.2,4.8l21.7,21.7    c2.1,2.1,3.7,4.5,4.8,7.2c1.1,2.7,1.7,5.5,1.7,8.4c0,2.9-0.5,5.4-1.6,7.8c-1,2.3-2.3,4.4-3.7,6.2c-1.4,1.8-3,3.5-4.8,5    c-1.8,1.5-3.3,3-4.8,4.4c-1.4,1.4-2.7,2.9-3.7,4.4c-1,1.5-1.5,3.1-1.5,4.9c0,2.4,1,4.5,2.9,6.4l54.4,54.6c1.9,1.8,4.1,2.6,6.4,2.6    c1.8,0,3.4-0.5,4.9-1.6c1.5-1,3-2.3,4.4-3.7l4.5-4.8c1.4-1.7,3.1-3.3,4.9-4.8c1.8-1.4,3.9-2.7,6.2-3.7    C420.5,553.1,423.1,552.5,425.9,552.5"/>
	</defs>
	<clipPath id="SVGID_116_">
		<use xlink:href="#SVGID_115_" style="overflow:visible;"/>
	</clipPath>
	<g class="st58">
		<defs>
			<rect id="SVGID_117_" x="0" y="0.8" width="1140" height="709.5"/>
		</defs>
		<clipPath id="SVGID_118_">
			<use xlink:href="#SVGID_117_" style="overflow:visible;"/>
		</clipPath>
		<rect x="251.7" y="417.4" class="st59" width="233.1" height="233.1"/>
	</g>
</g>
<g>
	<defs>
		<path id="SVGID_119_" d="M866.8,498.5v84.8c0,2-0.7,3.8-2.2,5.4c-1.4,1.6-3.2,2.4-5.2,2.4H714.2c-1.9,0-3.6-0.8-5.2-2.4    c-1.6-1.6-2.4-3.4-2.4-5.4v-83.1l74.4,52.6c0.6,0.6,1.4,1.1,2.2,1.3c0.8,0.3,1.6,0.4,2.4,0.4c0.8,0,1.6-0.1,2.4-0.4    c0.8-0.3,1.4-0.7,2.1-1.3L866.8,498.5z M708.4,481.2c1.5-2.1,3.5-3.2,5.8-3.2h145.2c0.8,0,1.6,0.2,2.6,0.7c1,0.4,1.8,1,2.3,1.6    l-78.6,55.9L708.4,481.2z"/>
	</defs>
	<clipPath id="SVGID_120_">
		<use xlink:href="#SVGID_119_" style="overflow:visible;"/>
	</clipPath>
	<g class="st60">
		<defs>
			<rect id="SVGID_121_" x="0" y="0.8" width="1140" height="709.5"/>
		</defs>
		<clipPath id="SVGID_122_">
			<use xlink:href="#SVGID_121_" style="overflow:visible;"/>
		</clipPath>
		<rect x="691.5" y="462.8" class="st61" width="190.4" height="143.3"/>
	</g>
</g>
</svg>