<?xml version="1.0" encoding="utf-8"?>
<!-- Generator: Adobe Illustrator 21.1.0, SVG Export Plug-In . SVG Version: 6.00 Build 0)  -->
<svg version="1.1" id="Layer_1" xmlns="http://www.w3.org/2000/svg" xmlns:xlink="http://www.w3.org/1999/xlink" x="0px" y="0px"
	 viewBox="0 0 1140 710" style="enable-background:new 0 0 1140 710;" xml:space="preserve">
<style type="text/css">
	.st0{fill:#FFFFFF;}
	.st1{opacity:0;fill-rule:evenodd;clip-rule:evenodd;fill:#FFFFFF;}
	.st2{clip-path:url(#SVGID_2_);}
	.st3{clip-path:url(#SVGID_4_);fill:#333333;}
	.st4{clip-path:url(#SVGID_6_);}
	.st5{clip-path:url(#SVGID_8_);fill:#333333;}
	.st6{clip-path:url(#SVGID_10_);}
	.st7{clip-path:url(#SVGID_12_);fill:#333333;}
	.st8{clip-path:url(#SVGID_14_);}
	.st9{clip-path:url(#SVGID_16_);}
	.st10{clip-path:url(#SVGID_18_);fill:#F2EFEC;}
	.st11{clip-path:url(#SVGID_20_);}
	.st12{clip-path:url(#SVGID_22_);fill:#666666;}
	.st13{clip-path:url(#SVGID_24_);}
	.st14{clip-path:url(#SVGID_26_);fill:#FFFFFF;}
	.st15{clip-path:url(#SVGID_28_);}
	.st16{clip-path:url(#SVGID_30_);fill:#D0D3D4;}
	.st17{clip-path:url(#SVGID_32_);}
	.st18{clip-path:url(#SVGID_34_);fill:#D0D3D4;}
	.st19{clip-path:url(#SVGID_36_);}
	.st20{clip-path:url(#SVGID_38_);fill:#D0D3D4;}
	.st21{clip-path:url(#SVGID_40_);}
	.st22{clip-path:url(#SVGID_42_);fill:#D0D3D4;}
	.st23{clip-path:url(#SVGID_44_);}
	.st24{clip-path:url(#SVGID_46_);fill:#D0D3D4;}
	.st25{clip-path:url(#SVGID_48_);}
	.st26{clip-path:url(#SVGID_50_);fill:#FFFFFF;}
	.st27{clip-path:url(#SVGID_52_);}
	.st28{clip-path:url(#SVGID_54_);fill:#FFFFFF;}
	.st29{clip-path:url(#SVGID_56_);}
	.st30{clip-path:url(#SVGID_58_);fill:#FFFFFF;}
	.st31{clip-path:url(#SVGID_60_);}
	.st32{clip-path:url(#SVGID_62_);fill:#D83B01;}
	.st33{clip-path:url(#SVGID_64_);}
	.st34{clip-path:url(#SVGID_66_);fill:#333333;}
	.st35{clip-path:url(#SVGID_68_);}
	.st36{clip-path:url(#SVGID_70_);fill:#F2EFEC;}
	.st37{clip-path:url(#SVGID_72_);}
	.st38{clip-path:url(#SVGID_74_);fill:#D83B01;}
	.st39{clip-path:url(#SVGID_76_);}
	.st40{clip-path:url(#SVGID_78_);fill:#FFFFFF;}
	.st41{clip-path:url(#SVGID_80_);}
	.st42{clip-path:url(#SVGID_82_);fill:#333333;}
	.st43{clip-path:url(#SVGID_84_);}
	.st44{clip-path:url(#SVGID_86_);fill:#F2EFEC;}
	.st45{clip-path:url(#SVGID_88_);}
	.st46{clip-path:url(#SVGID_90_);fill:#D83B01;}
	.st47{clip-path:url(#SVGID_92_);}
	.st48{clip-path:url(#SVGID_94_);fill:#FFFFFF;}
	.st49{clip-path:url(#SVGID_96_);}
	.st50{clip-path:url(#SVGID_98_);fill:#FFFFFF;}
	.st51{clip-path:url(#SVGID_100_);}
	.st52{clip-path:url(#SVGID_102_);fill:#D0D3D4;}
	.st53{clip-path:url(#SVGID_104_);}
	.st54{clip-path:url(#SVGID_106_);fill:#D0D3D4;}
	.st55{clip-path:url(#SVGID_108_);}
	.st56{clip-path:url(#SVGID_110_);fill:#FFFFFF;}
	.st57{clip-path:url(#SVGID_112_);}
	.st58{clip-path:url(#SVGID_114_);fill:#D0D3D4;}
	.st59{clip-path:url(#SVGID_116_);}
	.st60{clip-path:url(#SVGID_118_);fill:#D0D3D4;}
	.st61{clip-path:url(#SVGID_120_);}
	.st62{clip-path:url(#SVGID_122_);fill:#D0D3D4;}
	.st63{clip-path:url(#SVGID_124_);}
	.st64{clip-path:url(#SVGID_126_);fill:#333333;}
	.st65{clip-path:url(#SVGID_128_);}
	.st66{clip-path:url(#SVGID_130_);fill:#424242;}
	.st67{clip-path:url(#SVGID_132_);}
	.st68{clip-path:url(#SVGID_134_);fill:#333333;}
	.st69{clip-path:url(#SVGID_136_);}
	.st70{clip-path:url(#SVGID_138_);fill:#F2EFEC;}
	.st71{clip-path:url(#SVGID_140_);}
	.st72{clip-path:url(#SVGID_142_);fill:#FFFFFF;}
	.st73{clip-path:url(#SVGID_144_);}
	.st74{clip-path:url(#SVGID_146_);fill:#D83B01;}
	.st75{clip-path:url(#SVGID_148_);}
	.st76{clip-path:url(#SVGID_150_);fill:#666666;}
	.st77{clip-path:url(#SVGID_152_);}
	.st78{clip-path:url(#SVGID_154_);fill:#FFFFFF;}
	.st79{clip-path:url(#SVGID_156_);}
	.st80{clip-path:url(#SVGID_158_);fill:#FFFFFF;}
	.st81{clip-path:url(#SVGID_160_);}
	.st82{clip-path:url(#SVGID_162_);fill:#D0D3D4;}
	.st83{clip-path:url(#SVGID_164_);}
	.st84{clip-path:url(#SVGID_166_);fill:#D0D3D4;}
	.st85{clip-path:url(#SVGID_168_);}
	.st86{clip-path:url(#SVGID_170_);fill:#D0D3D4;}
	.st87{clip-path:url(#SVGID_172_);}
	.st88{clip-path:url(#SVGID_174_);fill:#FFFFFF;}
	.st89{clip-path:url(#SVGID_176_);}
	.st90{clip-path:url(#SVGID_178_);fill:#D0D3D4;}
	.st91{clip-path:url(#SVGID_180_);}
	.st92{clip-path:url(#SVGID_182_);fill:#FFFFFF;}
	.st93{clip-path:url(#SVGID_184_);}
	.st94{clip-path:url(#SVGID_186_);fill:#FFFFFF;}
	.st95{clip-path:url(#SVGID_188_);}
	.st96{clip-path:url(#SVGID_190_);fill:#FFFFFF;}
	.st97{clip-path:url(#SVGID_192_);}
	.st98{clip-path:url(#SVGID_194_);fill:#D0D3D4;}
	.st99{clip-path:url(#SVGID_196_);}
	.st100{clip-path:url(#SVGID_198_);fill:#D0D3D4;}
	.st101{clip-path:url(#SVGID_200_);}
	.st102{clip-path:url(#SVGID_202_);fill:#D0D3D4;}
	.st103{clip-path:url(#SVGID_204_);}
	.st104{clip-path:url(#SVGID_206_);fill:#FFFFFF;}
	.st105{clip-path:url(#SVGID_208_);}
	.st106{clip-path:url(#SVGID_210_);fill:#FFFFFF;}
	.st107{clip-path:url(#SVGID_212_);}
	.st108{clip-path:url(#SVGID_214_);fill:#FFFFFF;}
	.st109{clip-path:url(#SVGID_216_);}
	.st110{clip-path:url(#SVGID_218_);fill:#D0D3D4;}
	.st111{clip-path:url(#SVGID_220_);}
	.st112{clip-path:url(#SVGID_222_);fill:#FFFFFF;}
	.st113{clip-path:url(#SVGID_224_);}
	.st114{clip-path:url(#SVGID_226_);fill:#FFFFFF;}
	.st115{clip-path:url(#SVGID_228_);}
	.st116{clip-path:url(#SVGID_230_);fill:#FFFFFF;}
	.st117{clip-path:url(#SVGID_232_);}
	.st118{clip-path:url(#SVGID_234_);fill:#D0D3D4;}
	.st119{clip-path:url(#SVGID_236_);}
	.st120{clip-path:url(#SVGID_238_);fill:#FFFFFF;}
	.st121{clip-path:url(#SVGID_240_);}
	.st122{clip-path:url(#SVGID_242_);fill:#FFFFFF;}
	.st123{clip-path:url(#SVGID_244_);}
	.st124{clip-path:url(#SVGID_246_);fill:#D0D3D4;}
	.st125{clip-path:url(#SVGID_248_);}
	.st126{clip-path:url(#SVGID_250_);fill:#D0D3D4;}
	.st127{clip-path:url(#SVGID_252_);}
	.st128{clip-path:url(#SVGID_254_);fill:#D0D3D4;}
	.st129{clip-path:url(#SVGID_256_);}
	.st130{clip-path:url(#SVGID_258_);fill:#D0D3D4;}
</style>
<title>Artboard 1</title>
<rect x="0" y="-0.2" class="st0" width="1140" height="709.5"/>
<rect x="0" y="-0.2" class="st1" width="1140" height="708"/>
<g>
	<defs>
		<rect id="SVGID_1_" x="419" y="553.8" width="225" height="11"/>
	</defs>
	<clipPath id="SVGID_2_">
		<use xlink:href="#SVGID_1_"  style="overflow:visible;"/>
	</clipPath>
	<g class="st2">
		<defs>
			<rect id="SVGID_3_" x="0" y="-0.2" width="1140" height="709.5"/>
		</defs>
		<clipPath id="SVGID_4_">
			<use xlink:href="#SVGID_3_"  style="overflow:visible;"/>
		</clipPath>
		<rect x="403.8" y="538.6" class="st3" width="255.3" height="41.3"/>
	</g>
</g>
<g>
	<defs>
		<rect id="SVGID_5_" x="459" y="461.8" width="141" height="99"/>
	</defs>
	<clipPath id="SVGID_6_">
		<use xlink:href="#SVGID_5_"  style="overflow:visible;"/>
	</clipPath>
	<g class="st4">
		<defs>
			<rect id="SVGID_7_" x="0" y="-0.2" width="1140" height="709.5"/>
		</defs>
		<clipPath id="SVGID_8_">
			<use xlink:href="#SVGID_7_"  style="overflow:visible;"/>
		</clipPath>
		<rect x="443.8" y="446.6" class="st5" width="171.3" height="129.3"/>
	</g>
</g>
<g>
	<defs>
		<path id="SVGID_9_" d="M848,461.8c0,18.5-14.6,37-37,37H248.4c-18.4,0-33.4-14.9-33.4-33.4V165.1c0-18.4,14.9-33.4,33.4-33.4H811
			c22.5,0,37,14.9,37,33.4V461.8z"/>
	</defs>
	<clipPath id="SVGID_10_">
		<use xlink:href="#SVGID_9_"  style="overflow:visible;"/>
	</clipPath>
	<g class="st6">
		<defs>
			<rect id="SVGID_11_" x="0" y="-0.2" width="1140" height="709.5"/>
		</defs>
		<clipPath id="SVGID_12_">
			<use xlink:href="#SVGID_11_"  style="overflow:visible;"/>
		</clipPath>
		<rect x="199.8" y="116.6" class="st7" width="663.3" height="397.3"/>
	</g>
</g>
<g>
	<defs>
		<rect id="SVGID_13_" x="36.4" y="139.2" width="1064.2" height="427.5"/>
	</defs>
	<clipPath id="SVGID_14_">
		<use xlink:href="#SVGID_13_"  style="overflow:visible;"/>
	</clipPath>
	<g class="st8">
		<defs>
			<rect id="SVGID_15_" x="248" y="165.8" width="570" height="297"/>
		</defs>
		<clipPath id="SVGID_16_">
			<use xlink:href="#SVGID_15_"  style="overflow:visible;"/>
		</clipPath>
		<g class="st9">
			<defs>
				<rect id="SVGID_17_" x="36.4" y="130.1" width="1064.2" height="436.6"/>
			</defs>
			<clipPath id="SVGID_18_">
				<use xlink:href="#SVGID_17_"  style="overflow:visible;"/>
			</clipPath>
			<rect x="232.8" y="150.6" class="st10" width="600.3" height="327.3"/>
		</g>
	</g>
	<g class="st8">
		<defs>
			<path id="SVGID_19_" d="M538,147.8c0,3.9-3.1,7-7,7c-3.9,0-7-3.1-7-7c0-3.9,3.1-7,7-7C534.9,140.8,538,143.9,538,147.8"/>
		</defs>
		<clipPath id="SVGID_20_">
			<use xlink:href="#SVGID_19_"  style="overflow:visible;"/>
		</clipPath>
		<g class="st11">
			<defs>
				<rect id="SVGID_21_" x="36.4" y="130.1" width="1064.2" height="436.6"/>
			</defs>
			<clipPath id="SVGID_22_">
				<use xlink:href="#SVGID_21_"  style="overflow:visible;"/>
			</clipPath>
			<rect x="508.8" y="125.6" class="st12" width="44.3" height="44.3"/>
		</g>
	</g>
	<g class="st8">
		<defs>
			<rect id="SVGID_23_" x="353" y="235.8" width="442" height="226"/>
		</defs>
		<clipPath id="SVGID_24_">
			<use xlink:href="#SVGID_23_"  style="overflow:visible;"/>
		</clipPath>
		<g class="st13">
			<defs>
				<rect id="SVGID_25_" x="36.4" y="130.1" width="1064.2" height="436.6"/>
			</defs>
			<clipPath id="SVGID_26_">
				<use xlink:href="#SVGID_25_"  style="overflow:visible;"/>
			</clipPath>
			<rect x="337.8" y="220.6" class="st14" width="472.3" height="256.3"/>
		</g>
	</g>
	<g class="st8">
		<defs>
			<rect id="SVGID_27_" x="393.3" y="428.8" width="160.5" height="2"/>
		</defs>
		<clipPath id="SVGID_28_">
			<use xlink:href="#SVGID_27_"  style="overflow:visible;"/>
		</clipPath>
		<g class="st15">
			<defs>
				<rect id="SVGID_29_" x="36.4" y="130.1" width="1064.2" height="436.6"/>
			</defs>
			<clipPath id="SVGID_30_">
				<use xlink:href="#SVGID_29_"  style="overflow:visible;"/>
			</clipPath>
			<rect x="378.2" y="413.6" class="st16" width="190.8" height="32.3"/>
		</g>
	</g>
	<g class="st8">
		<defs>
			<rect id="SVGID_31_" x="393.3" y="396.8" width="160.5" height="2"/>
		</defs>
		<clipPath id="SVGID_32_">
			<use xlink:href="#SVGID_31_"  style="overflow:visible;"/>
		</clipPath>
		<g class="st17">
			<defs>
				<rect id="SVGID_33_" x="36.4" y="130.1" width="1064.2" height="436.6"/>
			</defs>
			<clipPath id="SVGID_34_">
				<use xlink:href="#SVGID_33_"  style="overflow:visible;"/>
			</clipPath>
			<rect x="378.2" y="381.6" class="st18" width="190.8" height="32.3"/>
		</g>
	</g>
	<g class="st8">
		<defs>
			<rect id="SVGID_35_" x="393.3" y="364.8" width="160.5" height="2"/>
		</defs>
		<clipPath id="SVGID_36_">
			<use xlink:href="#SVGID_35_"  style="overflow:visible;"/>
		</clipPath>
		<g class="st19">
			<defs>
				<rect id="SVGID_37_" x="36.4" y="130.1" width="1064.2" height="436.6"/>
			</defs>
			<clipPath id="SVGID_38_">
				<use xlink:href="#SVGID_37_"  style="overflow:visible;"/>
			</clipPath>
			<rect x="378.2" y="349.6" class="st20" width="190.8" height="32.3"/>
		</g>
	</g>
	<g class="st8">
		<defs>
			<rect id="SVGID_39_" x="393.3" y="332.8" width="160.5" height="2"/>
		</defs>
		<clipPath id="SVGID_40_">
			<use xlink:href="#SVGID_39_"  style="overflow:visible;"/>
		</clipPath>
		<g class="st21">
			<defs>
				<rect id="SVGID_41_" x="36.4" y="130.1" width="1064.2" height="436.6"/>
			</defs>
			<clipPath id="SVGID_42_">
				<use xlink:href="#SVGID_41_"  style="overflow:visible;"/>
			</clipPath>
			<rect x="378.2" y="317.6" class="st22" width="190.8" height="32.3"/>
		</g>
	</g>
	<g class="st8">
		<defs>
			<rect id="SVGID_43_" x="393.3" y="283.8" width="134.4" height="20"/>
		</defs>
		<clipPath id="SVGID_44_">
			<use xlink:href="#SVGID_43_"  style="overflow:visible;"/>
		</clipPath>
		<g class="st23">
			<defs>
				<rect id="SVGID_45_" x="36.4" y="130.1" width="1064.2" height="436.6"/>
			</defs>
			<clipPath id="SVGID_46_">
				<use xlink:href="#SVGID_45_"  style="overflow:visible;"/>
			</clipPath>
			<rect x="378.2" y="268.6" class="st24" width="164.8" height="50.3"/>
		</g>
	</g>
	<g class="st8">
		<defs>
			<rect id="SVGID_47_" x="256" y="359.8" width="88" height="54"/>
		</defs>
		<clipPath id="SVGID_48_">
			<use xlink:href="#SVGID_47_"  style="overflow:visible;"/>
		</clipPath>
		<g class="st25">
			<defs>
				<rect id="SVGID_49_" x="36.4" y="130.1" width="1064.2" height="436.6"/>
			</defs>
			<clipPath id="SVGID_50_">
				<use xlink:href="#SVGID_49_"  style="overflow:visible;"/>
			</clipPath>
			<rect x="240.8" y="344.6" class="st26" width="118.3" height="84.3"/>
		</g>
	</g>
	<g class="st8">
		<defs>
			<rect id="SVGID_51_" x="256" y="421.8" width="88" height="41"/>
		</defs>
		<clipPath id="SVGID_52_">
			<use xlink:href="#SVGID_51_"  style="overflow:visible;"/>
		</clipPath>
		<g class="st27">
			<defs>
				<rect id="SVGID_53_" x="36.4" y="130.1" width="1064.2" height="436.6"/>
			</defs>
			<clipPath id="SVGID_54_">
				<use xlink:href="#SVGID_53_"  style="overflow:visible;"/>
			</clipPath>
			<rect x="240.8" y="406.6" class="st28" width="118.3" height="71.3"/>
		</g>
	</g>
	<g class="st8">
		<defs>
			<rect id="SVGID_55_" x="248" y="186.8" width="570" height="29"/>
		</defs>
		<clipPath id="SVGID_56_">
			<use xlink:href="#SVGID_55_"  style="overflow:visible;"/>
		</clipPath>
		<g class="st29">
			<defs>
				<rect id="SVGID_57_" x="36.4" y="130.1" width="1064.2" height="436.6"/>
			</defs>
			<clipPath id="SVGID_58_">
				<use xlink:href="#SVGID_57_"  style="overflow:visible;"/>
			</clipPath>
			<rect x="232.8" y="171.6" class="st30" width="600.3" height="59.3"/>
		</g>
	</g>
	<g class="st8">
		<defs>
			<rect id="SVGID_59_" x="248" y="164.8" width="570" height="22"/>
		</defs>
		<clipPath id="SVGID_60_">
			<use xlink:href="#SVGID_59_"  style="overflow:visible;"/>
		</clipPath>
		<g class="st31">
			<defs>
				<rect id="SVGID_61_" x="36.4" y="130.1" width="1064.2" height="436.6"/>
			</defs>
			<clipPath id="SVGID_62_">
				<use xlink:href="#SVGID_61_"  style="overflow:visible;"/>
			</clipPath>
			<rect x="232.8" y="149.6" class="st32" width="600.3" height="52.3"/>
		</g>
	</g>
	<g class="st8">
		<defs>
			<path id="SVGID_63_" d="M280,557.9V403.7c0-3.8-3.1-6.9-6.9-6.9H159H44.9c-3.8,0-6.9,3.1-6.9,6.9v154.2c0,3.8,3.1,6.9,6.9,6.9
				H159h114.1C276.9,564.8,280,561.7,280,557.9"/>
		</defs>
		<clipPath id="SVGID_64_">
			<use xlink:href="#SVGID_63_"  style="overflow:visible;"/>
		</clipPath>
		<g class="st33">
			<defs>
				<rect id="SVGID_65_" x="36.4" y="130.1" width="1064.2" height="436.6"/>
			</defs>
			<clipPath id="SVGID_66_">
				<use xlink:href="#SVGID_65_"  style="overflow:visible;"/>
			</clipPath>
			<rect x="22.8" y="381.6" class="st34" width="272.3" height="198.3"/>
		</g>
	</g>
	<g class="st8">
		<defs>
			<rect id="SVGID_67_" x="50" y="413.8" width="219" height="123"/>
		</defs>
		<clipPath id="SVGID_68_">
			<use xlink:href="#SVGID_67_"  style="overflow:visible;"/>
		</clipPath>
		<g class="st35">
			<defs>
				<rect id="SVGID_69_" x="36.4" y="130.1" width="1064.2" height="436.6"/>
			</defs>
			<clipPath id="SVGID_70_">
				<use xlink:href="#SVGID_69_"  style="overflow:visible;"/>
			</clipPath>
			<rect x="34.8" y="398.6" class="st36" width="249.3" height="153.3"/>
		</g>
	</g>
	<g class="st8">
		<defs>
			<rect id="SVGID_71_" x="50" y="405.8" width="219" height="13"/>
		</defs>
		<clipPath id="SVGID_72_">
			<use xlink:href="#SVGID_71_"  style="overflow:visible;"/>
		</clipPath>
		<g class="st37">
			<defs>
				<rect id="SVGID_73_" x="36.4" y="130.1" width="1064.2" height="436.6"/>
			</defs>
			<clipPath id="SVGID_74_">
				<use xlink:href="#SVGID_73_"  style="overflow:visible;"/>
			</clipPath>
			<rect x="34.8" y="390.6" class="st38" width="249.3" height="43.3"/>
		</g>
	</g>
	<g class="st8">
		<defs>
			<rect id="SVGID_75_" x="50" y="418.8" width="219" height="6"/>
		</defs>
		<clipPath id="SVGID_76_">
			<use xlink:href="#SVGID_75_"  style="overflow:visible;"/>
		</clipPath>
		<g class="st39">
			<defs>
				<rect id="SVGID_77_" x="36.4" y="130.1" width="1064.2" height="436.6"/>
			</defs>
			<clipPath id="SVGID_78_">
				<use xlink:href="#SVGID_77_"  style="overflow:visible;"/>
			</clipPath>
			<rect x="34.8" y="403.6" class="st40" width="249.3" height="36.3"/>
		</g>
	</g>
	<g class="st8">
		<defs>
			<path id="SVGID_79_" d="M392,564.8h-79c-1.1,0-2-0.9-2-2v-162c0-1.1,0.9-2,2-2h79c1.1,0,2,0.9,2,2v162
				C394,563.9,393.1,564.8,392,564.8"/>
		</defs>
		<clipPath id="SVGID_80_">
			<use xlink:href="#SVGID_79_"  style="overflow:visible;"/>
		</clipPath>
		<g class="st41">
			<defs>
				<rect id="SVGID_81_" x="36.4" y="130.1" width="1064.2" height="436.6"/>
			</defs>
			<clipPath id="SVGID_82_">
				<use xlink:href="#SVGID_81_"  style="overflow:visible;"/>
			</clipPath>
			<rect x="295.8" y="383.6" class="st42" width="113.3" height="196.3"/>
		</g>
	</g>
	<g class="st8">
		<defs>
			<rect id="SVGID_83_" x="319" y="423.8" width="67" height="112"/>
		</defs>
		<clipPath id="SVGID_84_">
			<use xlink:href="#SVGID_83_"  style="overflow:visible;"/>
		</clipPath>
		<g class="st43">
			<defs>
				<rect id="SVGID_85_" x="36.4" y="130.1" width="1064.2" height="436.6"/>
			</defs>
			<clipPath id="SVGID_86_">
				<use xlink:href="#SVGID_85_"  style="overflow:visible;"/>
			</clipPath>
			<rect x="303.8" y="408.6" class="st44" width="97.3" height="142.3"/>
		</g>
	</g>
	<g class="st8">
		<defs>
			<rect id="SVGID_87_" x="319" y="408.8" width="67" height="15"/>
		</defs>
		<clipPath id="SVGID_88_">
			<use xlink:href="#SVGID_87_"  style="overflow:visible;"/>
		</clipPath>
		<g class="st45">
			<defs>
				<rect id="SVGID_89_" x="36.4" y="130.1" width="1064.2" height="436.6"/>
			</defs>
			<clipPath id="SVGID_90_">
				<use xlink:href="#SVGID_89_"  style="overflow:visible;"/>
			</clipPath>
			<rect x="303.8" y="393.6" class="st46" width="97.3" height="45.3"/>
		</g>
	</g>
	<g class="st8">
		<defs>
			<rect id="SVGID_91_" x="323" y="427.8" width="59" height="35"/>
		</defs>
		<clipPath id="SVGID_92_">
			<use xlink:href="#SVGID_91_"  style="overflow:visible;"/>
		</clipPath>
		<g class="st47">
			<defs>
				<rect id="SVGID_93_" x="36.4" y="130.1" width="1064.2" height="436.6"/>
			</defs>
			<clipPath id="SVGID_94_">
				<use xlink:href="#SVGID_93_"  style="overflow:visible;"/>
			</clipPath>
			<rect x="307.8" y="412.6" class="st48" width="89.3" height="65.3"/>
		</g>
	</g>
	<g class="st8">
		<defs>
			<rect id="SVGID_95_" x="323" y="469.8" width="59" height="35"/>
		</defs>
		<clipPath id="SVGID_96_">
			<use xlink:href="#SVGID_95_"  style="overflow:visible;"/>
		</clipPath>
		<g class="st49">
			<defs>
				<rect id="SVGID_97_" x="36.4" y="130.1" width="1064.2" height="436.6"/>
			</defs>
			<clipPath id="SVGID_98_">
				<use xlink:href="#SVGID_97_"  style="overflow:visible;"/>
			</clipPath>
			<rect x="307.8" y="454.6" class="st50" width="89.3" height="65.3"/>
		</g>
	</g>
	<g class="st8">
		<defs>
			<path id="SVGID_99_" d="M736.4,370.8c0,38.9-32.4,70.2-71.7,68.4c-35.1-1.6-63.5-30.1-65.1-65.1c-1.8-39.3,29.5-71.7,68.4-71.7
				v68.4H736.4z"/>
		</defs>
		<clipPath id="SVGID_100_">
			<use xlink:href="#SVGID_99_"  style="overflow:visible;"/>
		</clipPath>
		<g class="st51">
			<defs>
				<rect id="SVGID_101_" x="36.4" y="130.1" width="1064.2" height="436.6"/>
			</defs>
			<clipPath id="SVGID_102_">
				<use xlink:href="#SVGID_101_"  style="overflow:visible;"/>
			</clipPath>
			<rect x="584.4" y="287.2" class="st52" width="167.2" height="167.2"/>
		</g>
	</g>
	<g class="st8">
		<defs>
			<path id="SVGID_103_" d="M754.4,352.8H686v-68.4C723.8,284.3,754.4,315,754.4,352.8"/>
		</defs>
		<clipPath id="SVGID_104_">
			<use xlink:href="#SVGID_103_"  style="overflow:visible;"/>
		</clipPath>
		<g class="st53">
			<defs>
				<rect id="SVGID_105_" x="36.4" y="130.1" width="1064.2" height="436.6"/>
			</defs>
			<clipPath id="SVGID_106_">
				<use xlink:href="#SVGID_105_"  style="overflow:visible;"/>
			</clipPath>
			<rect x="670.8" y="269.2" class="st54" width="98.8" height="98.8"/>
		</g>
	</g>
	<g class="st8">
		<defs>
			<rect id="SVGID_107_" x="323" y="510.8" width="59" height="25"/>
		</defs>
		<clipPath id="SVGID_108_">
			<use xlink:href="#SVGID_107_"  style="overflow:visible;"/>
		</clipPath>
		<g class="st55">
			<defs>
				<rect id="SVGID_109_" x="36.4" y="130.1" width="1064.2" height="436.6"/>
			</defs>
			<clipPath id="SVGID_110_">
				<use xlink:href="#SVGID_109_"  style="overflow:visible;"/>
			</clipPath>
			<rect x="307.8" y="495.6" class="st56" width="89.3" height="55.3"/>
		</g>
	</g>
	<g class="st8">
		<defs>
			<rect id="SVGID_111_" x="329" y="434.8" width="19" height="2"/>
		</defs>
		<clipPath id="SVGID_112_">
			<use xlink:href="#SVGID_111_"  style="overflow:visible;"/>
		</clipPath>
		<g class="st57">
			<defs>
				<rect id="SVGID_113_" x="36.4" y="130.1" width="1064.2" height="436.6"/>
			</defs>
			<clipPath id="SVGID_114_">
				<use xlink:href="#SVGID_113_"  style="overflow:visible;"/>
			</clipPath>
			<rect x="313.8" y="419.6" class="st58" width="49.3" height="32.3"/>
		</g>
	</g>
	<g class="st8">
		<defs>
			<path id="SVGID_115_" d="M374,445.8c0,6-5.9,10.6-12.1,8.4c-2.4-0.8-4.4-2.8-5.2-5.2c-2.2-6.3,2.4-12.1,8.4-12.1v9H374z"/>
		</defs>
		<clipPath id="SVGID_116_">
			<use xlink:href="#SVGID_115_"  style="overflow:visible;"/>
		</clipPath>
		<g class="st59">
			<defs>
				<rect id="SVGID_117_" x="36.4" y="130.1" width="1064.2" height="436.6"/>
			</defs>
			<clipPath id="SVGID_118_">
				<use xlink:href="#SVGID_117_"  style="overflow:visible;"/>
			</clipPath>
			<rect x="340.9" y="421.6" class="st60" width="48.3" height="48.3"/>
		</g>
	</g>
	<g class="st8">
		<defs>
			<path id="SVGID_119_" d="M377,443.8h-9v-9C373,434.8,377,438.8,377,443.8"/>
		</defs>
		<clipPath id="SVGID_120_">
			<use xlink:href="#SVGID_119_"  style="overflow:visible;"/>
		</clipPath>
		<g class="st61">
			<defs>
				<rect id="SVGID_121_" x="36.4" y="130.1" width="1064.2" height="436.6"/>
			</defs>
			<clipPath id="SVGID_122_">
				<use xlink:href="#SVGID_121_"  style="overflow:visible;"/>
			</clipPath>
			<rect x="352.8" y="419.6" class="st62" width="39.3" height="39.3"/>
		</g>
	</g>
	<g class="st8">
		<defs>
			<path id="SVGID_123_" d="M721.1,560.8h318.9c6.1,0,11.1-4.9,11.1-11v-229c0-6.1-4.9-11-11.1-11H721.1c-6.1,0-11.1,4.9-11.1,11
				v229C710,555.8,714.9,560.8,721.1,560.8"/>
		</defs>
		<clipPath id="SVGID_124_">
			<use xlink:href="#SVGID_123_"  style="overflow:visible;"/>
		</clipPath>
		<g class="st63">
			<defs>
				<rect id="SVGID_125_" x="36.4" y="130.1" width="1064.2" height="436.6"/>
			</defs>
			<clipPath id="SVGID_126_">
				<use xlink:href="#SVGID_125_"  style="overflow:visible;"/>
			</clipPath>
			<rect x="694.8" y="294.6" class="st64" width="371.3" height="281.3"/>
		</g>
	</g>
	<g class="st8">
		<defs>
			<rect id="SVGID_127_" x="722" y="326.8" width="318" height="207"/>
		</defs>
		<clipPath id="SVGID_128_">
			<use xlink:href="#SVGID_127_"  style="overflow:visible;"/>
		</clipPath>
		<g class="st65">
			<defs>
				<rect id="SVGID_129_" x="36.4" y="130.1" width="1064.2" height="436.6"/>
			</defs>
			<clipPath id="SVGID_130_">
				<use xlink:href="#SVGID_129_"  style="overflow:visible;"/>
			</clipPath>
			<rect x="706.8" y="311.6" class="st66" width="348.3" height="237.3"/>
		</g>
	</g>
	<g class="st8">
		<defs>
			<path id="SVGID_131_" d="M657,546.8v2.7c0,7.7,7.5,15.3,17.6,15.3h406.8c10.1,0,17.6-7.7,17.6-15.3v-2.7H657z"/>
		</defs>
		<clipPath id="SVGID_132_">
			<use xlink:href="#SVGID_131_"  style="overflow:visible;"/>
		</clipPath>
		<g class="st67">
			<defs>
				<rect id="SVGID_133_" x="36.4" y="130.1" width="1064.2" height="436.6"/>
			</defs>
			<clipPath id="SVGID_134_">
				<use xlink:href="#SVGID_133_"  style="overflow:visible;"/>
			</clipPath>
			<rect x="641.8" y="531.6" class="st68" width="472.3" height="48.3"/>
		</g>
	</g>
	<g class="st8">
		<defs>
			<rect id="SVGID_135_" x="722" y="339.8" width="320" height="196"/>
		</defs>
		<clipPath id="SVGID_136_">
			<use xlink:href="#SVGID_135_"  style="overflow:visible;"/>
		</clipPath>
		<g class="st69">
			<defs>
				<rect id="SVGID_137_" x="36.4" y="130.1" width="1064.2" height="436.6"/>
			</defs>
			<clipPath id="SVGID_138_">
				<use xlink:href="#SVGID_137_"  style="overflow:visible;"/>
			</clipPath>
			<rect x="706.8" y="324.6" class="st70" width="350.3" height="226.3"/>
		</g>
	</g>
	<g class="st8">
		<defs>
			<rect id="SVGID_139_" x="722" y="342.8" width="320" height="20"/>
		</defs>
		<clipPath id="SVGID_140_">
			<use xlink:href="#SVGID_139_"  style="overflow:visible;"/>
		</clipPath>
		<g class="st71">
			<defs>
				<rect id="SVGID_141_" x="36.4" y="130.1" width="1064.2" height="436.6"/>
			</defs>
			<clipPath id="SVGID_142_">
				<use xlink:href="#SVGID_141_"  style="overflow:visible;"/>
			</clipPath>
			<rect x="706.8" y="327.6" class="st72" width="350.3" height="50.3"/>
		</g>
	</g>
	<g class="st8">
		<defs>
			<rect id="SVGID_143_" x="722" y="326.8" width="320" height="16"/>
		</defs>
		<clipPath id="SVGID_144_">
			<use xlink:href="#SVGID_143_"  style="overflow:visible;"/>
		</clipPath>
		<g class="st73">
			<defs>
				<rect id="SVGID_145_" x="36.4" y="130.1" width="1064.2" height="436.6"/>
			</defs>
			<clipPath id="SVGID_146_">
				<use xlink:href="#SVGID_145_"  style="overflow:visible;"/>
			</clipPath>
			<rect x="706.8" y="311.6" class="st74" width="350.3" height="46.3"/>
		</g>
	</g>
	<g class="st8">
		<defs>
			<path id="SVGID_147_" d="M882,318.3c0,1.9-1.6,3.5-3.5,3.5c-1.9,0-3.5-1.6-3.5-3.5c0-1.9,1.6-3.5,3.5-3.5
				C880.4,314.8,882,316.3,882,318.3"/>
		</defs>
		<clipPath id="SVGID_148_">
			<use xlink:href="#SVGID_147_"  style="overflow:visible;"/>
		</clipPath>
		<g class="st75">
			<defs>
				<rect id="SVGID_149_" x="36.4" y="130.1" width="1064.2" height="436.6"/>
			</defs>
			<clipPath id="SVGID_150_">
				<use xlink:href="#SVGID_149_"  style="overflow:visible;"/>
			</clipPath>
			<rect x="859.8" y="299.6" class="st76" width="37.3" height="37.3"/>
		</g>
	</g>
	<g class="st8">
		<defs>
			<rect id="SVGID_151_" x="256" y="235.8" width="88" height="54"/>
		</defs>
		<clipPath id="SVGID_152_">
			<use xlink:href="#SVGID_151_"  style="overflow:visible;"/>
		</clipPath>
		<g class="st77">
			<defs>
				<rect id="SVGID_153_" x="36.4" y="130.1" width="1064.2" height="436.6"/>
			</defs>
			<clipPath id="SVGID_154_">
				<use xlink:href="#SVGID_153_"  style="overflow:visible;"/>
			</clipPath>
			<rect x="240.8" y="220.6" class="st78" width="118.3" height="84.3"/>
		</g>
	</g>
	<g class="st8">
		<defs>
			<rect id="SVGID_155_" x="256" y="297.8" width="88" height="54"/>
		</defs>
		<clipPath id="SVGID_156_">
			<use xlink:href="#SVGID_155_"  style="overflow:visible;"/>
		</clipPath>
		<g class="st79">
			<defs>
				<rect id="SVGID_157_" x="36.4" y="130.1" width="1064.2" height="436.6"/>
			</defs>
			<clipPath id="SVGID_158_">
				<use xlink:href="#SVGID_157_"  style="overflow:visible;"/>
			</clipPath>
			<rect x="240.8" y="282.6" class="st80" width="118.3" height="84.3"/>
		</g>
	</g>
	<g class="st8">
		<defs>
			<rect id="SVGID_159_" x="264" y="245.8" width="28" height="4"/>
		</defs>
		<clipPath id="SVGID_160_">
			<use xlink:href="#SVGID_159_"  style="overflow:visible;"/>
		</clipPath>
		<g class="st81">
			<defs>
				<rect id="SVGID_161_" x="36.4" y="130.1" width="1064.2" height="436.6"/>
			</defs>
			<clipPath id="SVGID_162_">
				<use xlink:href="#SVGID_161_"  style="overflow:visible;"/>
			</clipPath>
			<rect x="248.8" y="230.6" class="st82" width="58.3" height="34.3"/>
		</g>
	</g>
	<g class="st8">
		<defs>
			<path id="SVGID_163_" d="M335,265.8c0,8.8-7.2,16-16,16c-8.8,0-16-7.2-16-16c0-8.8,7.2-16,16-16v16H335z"/>
		</defs>
		<clipPath id="SVGID_164_">
			<use xlink:href="#SVGID_163_"  style="overflow:visible;"/>
		</clipPath>
		<g class="st83">
			<defs>
				<rect id="SVGID_165_" x="36.4" y="130.1" width="1064.2" height="436.6"/>
			</defs>
			<clipPath id="SVGID_166_">
				<use xlink:href="#SVGID_165_"  style="overflow:visible;"/>
			</clipPath>
			<rect x="287.8" y="234.6" class="st84" width="62.3" height="62.3"/>
		</g>
	</g>
	<g class="st8">
		<defs>
			<path id="SVGID_167_" d="M339,261.8h-16v-16C331.8,245.8,339,252.9,339,261.8"/>
		</defs>
		<clipPath id="SVGID_168_">
			<use xlink:href="#SVGID_167_"  style="overflow:visible;"/>
		</clipPath>
		<g class="st85">
			<defs>
				<rect id="SVGID_169_" x="36.4" y="130.1" width="1064.2" height="436.6"/>
			</defs>
			<clipPath id="SVGID_170_">
				<use xlink:href="#SVGID_169_"  style="overflow:visible;"/>
			</clipPath>
			<rect x="307.8" y="230.6" class="st86" width="46.3" height="46.3"/>
		</g>
	</g>
	<g class="st8">
		<defs>
			<rect id="SVGID_171_" x="784" y="370.8" width="249" height="155"/>
		</defs>
		<clipPath id="SVGID_172_">
			<use xlink:href="#SVGID_171_"  style="overflow:visible;"/>
		</clipPath>
		<g class="st87">
			<defs>
				<rect id="SVGID_173_" x="36.4" y="130.1" width="1064.2" height="436.6"/>
			</defs>
			<clipPath id="SVGID_174_">
				<use xlink:href="#SVGID_173_"  style="overflow:visible;"/>
			</clipPath>
			<rect x="768.8" y="355.6" class="st88" width="279.3" height="185.3"/>
		</g>
	</g>
	<g class="st8">
		<defs>
			<rect id="SVGID_175_" x="806" y="397.8" width="76" height="11"/>
		</defs>
		<clipPath id="SVGID_176_">
			<use xlink:href="#SVGID_175_"  style="overflow:visible;"/>
		</clipPath>
		<g class="st89">
			<defs>
				<rect id="SVGID_177_" x="36.4" y="130.1" width="1064.2" height="436.6"/>
			</defs>
			<clipPath id="SVGID_178_">
				<use xlink:href="#SVGID_177_"  style="overflow:visible;"/>
			</clipPath>
			<rect x="790.8" y="382.6" class="st90" width="106.3" height="41.3"/>
		</g>
	</g>
	<g class="st8">
		<defs>
			<rect id="SVGID_179_" x="729" y="370.8" width="50" height="30"/>
		</defs>
		<clipPath id="SVGID_180_">
			<use xlink:href="#SVGID_179_"  style="overflow:visible;"/>
		</clipPath>
		<g class="st91">
			<defs>
				<rect id="SVGID_181_" x="36.4" y="130.1" width="1064.2" height="436.6"/>
			</defs>
			<clipPath id="SVGID_182_">
				<use xlink:href="#SVGID_181_"  style="overflow:visible;"/>
			</clipPath>
			<rect x="713.8" y="355.6" class="st92" width="80.3" height="60.3"/>
		</g>
	</g>
	<g class="st8">
		<defs>
			<rect id="SVGID_183_" x="729" y="405.8" width="50" height="30"/>
		</defs>
		<clipPath id="SVGID_184_">
			<use xlink:href="#SVGID_183_"  style="overflow:visible;"/>
		</clipPath>
		<g class="st93">
			<defs>
				<rect id="SVGID_185_" x="36.4" y="130.1" width="1064.2" height="436.6"/>
			</defs>
			<clipPath id="SVGID_186_">
				<use xlink:href="#SVGID_185_"  style="overflow:visible;"/>
			</clipPath>
			<rect x="713.8" y="390.6" class="st94" width="80.3" height="60.3"/>
		</g>
	</g>
	<g class="st8">
		<defs>
			<rect id="SVGID_187_" x="729" y="440.8" width="50" height="30"/>
		</defs>
		<clipPath id="SVGID_188_">
			<use xlink:href="#SVGID_187_"  style="overflow:visible;"/>
		</clipPath>
		<g class="st95">
			<defs>
				<rect id="SVGID_189_" x="36.4" y="130.1" width="1064.2" height="436.6"/>
			</defs>
			<clipPath id="SVGID_190_">
				<use xlink:href="#SVGID_189_"  style="overflow:visible;"/>
			</clipPath>
			<rect x="713.8" y="425.6" class="st96" width="80.3" height="60.3"/>
		</g>
	</g>
	<g class="st8">
		<defs>
			<rect id="SVGID_191_" x="734" y="376.8" width="16" height="2"/>
		</defs>
		<clipPath id="SVGID_192_">
			<use xlink:href="#SVGID_191_"  style="overflow:visible;"/>
		</clipPath>
		<g class="st97">
			<defs>
				<rect id="SVGID_193_" x="36.4" y="130.1" width="1064.2" height="436.6"/>
			</defs>
			<clipPath id="SVGID_194_">
				<use xlink:href="#SVGID_193_"  style="overflow:visible;"/>
			</clipPath>
			<rect x="718.8" y="361.6" class="st98" width="46.3" height="32.3"/>
		</g>
	</g>
	<g class="st8">
		<defs>
			<path id="SVGID_195_" d="M773.1,386.8c0,5-4.5,8.9-9.7,7.9c-3.1-0.6-5.7-3.1-6.3-6.3c-1-5.2,2.9-9.7,7.9-9.7v8.1H773.1z"/>
		</defs>
		<clipPath id="SVGID_196_">
			<use xlink:href="#SVGID_195_"  style="overflow:visible;"/>
		</clipPath>
		<g class="st99">
			<defs>
				<rect id="SVGID_197_" x="36.4" y="130.1" width="1064.2" height="436.6"/>
			</defs>
			<clipPath id="SVGID_198_">
				<use xlink:href="#SVGID_197_"  style="overflow:visible;"/>
			</clipPath>
			<rect x="741.8" y="363.5" class="st100" width="46.5" height="46.5"/>
		</g>
	</g>
	<g class="st8">
		<defs>
			<path id="SVGID_199_" d="M774.1,384.8H766v-8.1C770.5,376.7,774.1,380.3,774.1,384.8"/>
		</defs>
		<clipPath id="SVGID_200_">
			<use xlink:href="#SVGID_199_"  style="overflow:visible;"/>
		</clipPath>
		<g class="st101">
			<defs>
				<rect id="SVGID_201_" x="36.4" y="130.1" width="1064.2" height="436.6"/>
			</defs>
			<clipPath id="SVGID_202_">
				<use xlink:href="#SVGID_201_"  style="overflow:visible;"/>
			</clipPath>
			<rect x="750.8" y="361.5" class="st102" width="38.4" height="38.4"/>
		</g>
	</g>
	<g class="st8">
		<defs>
			<rect id="SVGID_203_" x="729" y="475.8" width="50" height="30"/>
		</defs>
		<clipPath id="SVGID_204_">
			<use xlink:href="#SVGID_203_"  style="overflow:visible;"/>
		</clipPath>
		<g class="st103">
			<defs>
				<rect id="SVGID_205_" x="36.4" y="130.1" width="1064.2" height="436.6"/>
			</defs>
			<clipPath id="SVGID_206_">
				<use xlink:href="#SVGID_205_"  style="overflow:visible;"/>
			</clipPath>
			<rect x="713.8" y="460.6" class="st104" width="80.3" height="60.3"/>
		</g>
	</g>
	<g class="st8">
		<defs>
			<rect id="SVGID_207_" x="729" y="510.8" width="50" height="25"/>
		</defs>
		<clipPath id="SVGID_208_">
			<use xlink:href="#SVGID_207_"  style="overflow:visible;"/>
		</clipPath>
		<g class="st105">
			<defs>
				<rect id="SVGID_209_" x="36.4" y="130.1" width="1064.2" height="436.6"/>
			</defs>
			<clipPath id="SVGID_210_">
				<use xlink:href="#SVGID_209_"  style="overflow:visible;"/>
			</clipPath>
			<rect x="713.8" y="495.6" class="st106" width="80.3" height="55.3"/>
		</g>
	</g>
	<g class="st8">
		<defs>
			<rect id="SVGID_211_" x="92" y="430.8" width="169" height="106"/>
		</defs>
		<clipPath id="SVGID_212_">
			<use xlink:href="#SVGID_211_"  style="overflow:visible;"/>
		</clipPath>
		<g class="st107">
			<defs>
				<rect id="SVGID_213_" x="36.4" y="130.1" width="1064.2" height="436.6"/>
			</defs>
			<clipPath id="SVGID_214_">
				<use xlink:href="#SVGID_213_"  style="overflow:visible;"/>
			</clipPath>
			<rect x="76.8" y="415.6" class="st108" width="199.3" height="136.3"/>
		</g>
	</g>
	<g class="st8">
		<defs>
			<rect id="SVGID_215_" x="107" y="449.8" width="52" height="7"/>
		</defs>
		<clipPath id="SVGID_216_">
			<use xlink:href="#SVGID_215_"  style="overflow:visible;"/>
		</clipPath>
		<g class="st109">
			<defs>
				<rect id="SVGID_217_" x="36.4" y="130.1" width="1064.2" height="436.6"/>
			</defs>
			<clipPath id="SVGID_218_">
				<use xlink:href="#SVGID_217_"  style="overflow:visible;"/>
			</clipPath>
			<rect x="91.8" y="434.6" class="st110" width="82.3" height="37.3"/>
		</g>
	</g>
	<g class="st8">
		<defs>
			<rect id="SVGID_219_" x="55" y="430.8" width="34" height="20"/>
		</defs>
		<clipPath id="SVGID_220_">
			<use xlink:href="#SVGID_219_"  style="overflow:visible;"/>
		</clipPath>
		<g class="st111">
			<defs>
				<rect id="SVGID_221_" x="36.4" y="130.1" width="1064.2" height="436.6"/>
			</defs>
			<clipPath id="SVGID_222_">
				<use xlink:href="#SVGID_221_"  style="overflow:visible;"/>
			</clipPath>
			<rect x="39.8" y="415.6" class="st112" width="64.3" height="50.3"/>
		</g>
	</g>
	<g class="st8">
		<defs>
			<rect id="SVGID_223_" x="55" y="454.8" width="34" height="20"/>
		</defs>
		<clipPath id="SVGID_224_">
			<use xlink:href="#SVGID_223_"  style="overflow:visible;"/>
		</clipPath>
		<g class="st113">
			<defs>
				<rect id="SVGID_225_" x="36.4" y="130.1" width="1064.2" height="436.6"/>
			</defs>
			<clipPath id="SVGID_226_">
				<use xlink:href="#SVGID_225_"  style="overflow:visible;"/>
			</clipPath>
			<rect x="39.8" y="439.6" class="st114" width="64.3" height="50.3"/>
		</g>
	</g>
	<g class="st8">
		<defs>
			<rect id="SVGID_227_" x="55" y="478.8" width="34" height="20"/>
		</defs>
		<clipPath id="SVGID_228_">
			<use xlink:href="#SVGID_227_"  style="overflow:visible;"/>
		</clipPath>
		<g class="st115">
			<defs>
				<rect id="SVGID_229_" x="36.4" y="130.1" width="1064.2" height="436.6"/>
			</defs>
			<clipPath id="SVGID_230_">
				<use xlink:href="#SVGID_229_"  style="overflow:visible;"/>
			</clipPath>
			<rect x="39.8" y="463.6" class="st116" width="64.3" height="50.3"/>
		</g>
	</g>
	<g class="st8">
		<defs>
			<rect id="SVGID_231_" x="74" y="437.8" width="12" height="10"/>
		</defs>
		<clipPath id="SVGID_232_">
			<use xlink:href="#SVGID_231_"  style="overflow:visible;"/>
		</clipPath>
		<g class="st117">
			<defs>
				<rect id="SVGID_233_" x="36.4" y="130.1" width="1064.2" height="436.6"/>
			</defs>
			<clipPath id="SVGID_234_">
				<use xlink:href="#SVGID_233_"  style="overflow:visible;"/>
			</clipPath>
			<rect x="58.8" y="422.6" class="st118" width="42.3" height="40.3"/>
		</g>
	</g>
	<g class="st8">
		<defs>
			<rect id="SVGID_235_" x="55" y="501.8" width="34" height="20"/>
		</defs>
		<clipPath id="SVGID_236_">
			<use xlink:href="#SVGID_235_"  style="overflow:visible;"/>
		</clipPath>
		<g class="st119">
			<defs>
				<rect id="SVGID_237_" x="36.4" y="130.1" width="1064.2" height="436.6"/>
			</defs>
			<clipPath id="SVGID_238_">
				<use xlink:href="#SVGID_237_"  style="overflow:visible;"/>
			</clipPath>
			<rect x="39.8" y="486.6" class="st120" width="64.3" height="50.3"/>
		</g>
	</g>
	<g class="st8">
		<defs>
			<rect id="SVGID_239_" x="55" y="525.8" width="34" height="11"/>
		</defs>
		<clipPath id="SVGID_240_">
			<use xlink:href="#SVGID_239_"  style="overflow:visible;"/>
		</clipPath>
		<g class="st121">
			<defs>
				<rect id="SVGID_241_" x="36.4" y="130.1" width="1064.2" height="436.6"/>
			</defs>
			<clipPath id="SVGID_242_">
				<use xlink:href="#SVGID_241_"  style="overflow:visible;"/>
			</clipPath>
			<rect x="39.8" y="510.6" class="st122" width="64.3" height="41.3"/>
		</g>
	</g>
	<g class="st8">
		<defs>
			<path id="SVGID_243_" d="M1002.1,445.8c0,22.5-19,40.6-41.9,39c-19.3-1.3-34.9-17-36.2-36.2c-1.6-22.9,16.5-41.9,39-41.9v39.1
				H1002.1z"/>
		</defs>
		<clipPath id="SVGID_244_">
			<use xlink:href="#SVGID_243_"  style="overflow:visible;"/>
		</clipPath>
		<g class="st123">
			<defs>
				<rect id="SVGID_245_" x="36.4" y="130.1" width="1064.2" height="436.6"/>
			</defs>
			<clipPath id="SVGID_246_">
				<use xlink:href="#SVGID_245_"  style="overflow:visible;"/>
			</clipPath>
			<rect x="908.7" y="391.5" class="st124" width="108.5" height="108.5"/>
		</g>
	</g>
	<g class="st8">
		<defs>
			<path id="SVGID_247_" d="M1011.1,436.8H972v-39.1C993.6,397.6,1011.1,415.2,1011.1,436.8"/>
		</defs>
		<clipPath id="SVGID_248_">
			<use xlink:href="#SVGID_247_"  style="overflow:visible;"/>
		</clipPath>
		<g class="st125">
			<defs>
				<rect id="SVGID_249_" x="36.4" y="130.1" width="1064.2" height="436.6"/>
			</defs>
			<clipPath id="SVGID_250_">
				<use xlink:href="#SVGID_249_"  style="overflow:visible;"/>
			</clipPath>
			<rect x="956.8" y="382.5" class="st126" width="69.4" height="69.4"/>
		</g>
	</g>
	<g class="st8">
		<defs>
			<path id="SVGID_251_" d="M240.3,481.4c0,15.5-13.1,27.9-28.8,26.8c-13.3-0.9-24-11.7-24.9-24.9c-1.1-15.7,11.3-28.8,26.8-28.8
				v26.9H240.3z"/>
		</defs>
		<clipPath id="SVGID_252_">
			<use xlink:href="#SVGID_251_"  style="overflow:visible;"/>
		</clipPath>
		<g class="st127">
			<defs>
				<rect id="SVGID_253_" x="36.4" y="130.1" width="1064.2" height="436.6"/>
			</defs>
			<clipPath id="SVGID_254_">
				<use xlink:href="#SVGID_253_"  style="overflow:visible;"/>
			</clipPath>
			<rect x="171.3" y="439.3" class="st128" width="84.1" height="84.1"/>
		</g>
	</g>
	<g class="st8">
		<defs>
			<path id="SVGID_255_" d="M246.5,475.2h-26.9v-26.9C234.5,448.3,246.5,460.3,246.5,475.2"/>
		</defs>
		<clipPath id="SVGID_256_">
			<use xlink:href="#SVGID_255_"  style="overflow:visible;"/>
		</clipPath>
		<g class="st129">
			<defs>
				<rect id="SVGID_257_" x="36.4" y="130.1" width="1064.2" height="436.6"/>
			</defs>
			<clipPath id="SVGID_258_">
				<use xlink:href="#SVGID_257_"  style="overflow:visible;"/>
			</clipPath>
			<rect x="204.4" y="433.1" class="st130" width="57.2" height="57.2"/>
		</g>
	</g>
</g>
</svg>
