<?xml version="1.0" encoding="utf-8"?>
<!-- Generator: Adobe Illustrator 21.1.0, SVG Export Plug-In . SVG Version: 6.00 Build 0)  -->
<svg version="1.1" id="Layer_1" xmlns="http://www.w3.org/2000/svg" xmlns:xlink="http://www.w3.org/1999/xlink" x="0px" y="0px"
	 viewBox="0 0 1140 710" style="enable-background:new 0 0 1140 710;" xml:space="preserve">
<style type="text/css">
	.st0{fill:#FFFFFF;}
	.st1{opacity:0;fill-rule:evenodd;clip-rule:evenodd;fill:#FFFFFF;}
	.st2{clip-path:url(#SVGID_2_);}
	.st3{clip-path:url(#SVGID_4_);fill:#F2F2F2;}
	.st4{clip-path:url(#SVGID_6_);}
	.st5{clip-path:url(#SVGID_8_);fill:#F2F2F2;}
	.st6{clip-path:url(#SVGID_10_);}
	.st7{clip-path:url(#SVGID_12_);fill:#C8C8C8;}
	.st8{clip-path:url(#SVGID_14_);}
	.st9{clip-path:url(#SVGID_16_);fill:#333333;}
	.st10{clip-path:url(#SVGID_18_);}
	.st11{clip-path:url(#SVGID_20_);fill:#D83B01;}
	.st12{clip-path:url(#SVGID_22_);}
	.st13{clip-path:url(#SVGID_24_);fill:#666666;}
	.st14{clip-path:url(#SVGID_26_);}
	.st15{clip-path:url(#SVGID_28_);fill:#666666;}
	.st16{clip-path:url(#SVGID_30_);}
	.st17{clip-path:url(#SVGID_32_);fill:#D83B01;}
	.st18{clip-path:url(#SVGID_34_);}
	.st19{clip-path:url(#SVGID_36_);fill:#333333;}
	.st20{clip-path:url(#SVGID_38_);}
	.st21{clip-path:url(#SVGID_40_);fill:#F4F4F4;}
	.st22{clip-path:url(#SVGID_42_);}
	.st23{clip-path:url(#SVGID_44_);fill:#D83B01;}
	.st24{clip-path:url(#SVGID_46_);}
	.st25{clip-path:url(#SVGID_48_);fill:#666666;}
	.st26{clip-path:url(#SVGID_50_);}
	.st27{clip-path:url(#SVGID_52_);fill:#333333;}
	.st28{fill:none;}
</style>
<title>Artboard 1</title>
<rect x="0" y="-0.2" class="st0" width="1140" height="709.5"/>
<rect y="-0.2" class="st1" width="1140" height="708"/>
<g>
	<defs>
		<path id="SVGID_1_" d="M505.7,171.3c16.2,16.4,24.7,36.8,25.3,61.2c-0.6,24.4-9,44.9-25.3,61.2c-16.2,16.4-36.7,24.9-61.5,25.5
			H200.7c-17.9-0.6-32.9-7-45-19c-12.1-12.1-18.4-27.1-19-45c0.3-17.3,6-31.9,17.2-43.6c11.1-11.8,25.2-18.6,42.2-20.4
			c-0.6-3.4-0.9-7-0.9-10.7c0.9-30.9,11.7-56.7,32.2-77.2c20.6-20.6,46.2-31.2,76.8-31.8c26,0.3,48.4,8,67.3,23.2
			c18.9,15.2,31.5,34.8,38,58.9c10.8-5.3,22.4-7.9,34.8-7.9C469,146.4,489.5,154.9,505.7,171.3z"/>
	</defs>
	<clipPath id="SVGID_2_">
		<use xlink:href="#SVGID_1_"  style="overflow:visible;"/>
	</clipPath>
	<g class="st2">
		<defs>
			<rect id="SVGID_3_" x="0" y="-0.2" width="1140" height="709.5"/>
		</defs>
		<clipPath id="SVGID_4_">
			<use xlink:href="#SVGID_3_"  style="overflow:visible;"/>
		</clipPath>
		<rect x="121.5" y="56.4" class="st3" width="424.6" height="278.1"/>
	</g>
</g>
<g>
	<defs>
		<path id="SVGID_5_" d="M981,300.5c10.1,10.2,15.3,22.8,15.7,38c-0.4,15.2-5.6,27.8-15.7,38c-10.1,10.2-22.8,15.4-38.1,15.8h-151
			c-11.1-0.4-20.4-4.3-27.9-11.8c-7.5-7.5-11.4-16.8-11.8-27.9c0.2-10.7,3.7-19.7,10.6-27c6.9-7.3,15.6-11.5,26.2-12.7
			c-0.4-2.1-0.6-4.3-0.6-6.6c0.6-19.2,7.2-35.1,20-47.9c12.8-12.7,28.6-19.3,47.6-19.7c16.1,0.2,30,5,41.7,14.4
			c11.7,9.4,19.6,21.6,23.6,36.5c6.7-3.3,13.9-4.9,21.6-4.9C958.3,285.1,971,290.3,981,300.5"/>
	</defs>
	<clipPath id="SVGID_6_">
		<use xlink:href="#SVGID_5_"  style="overflow:visible;"/>
	</clipPath>
	<g class="st4">
		<defs>
			<rect id="SVGID_7_" x="0" y="-0.2" width="1140" height="709.5"/>
		</defs>
		<clipPath id="SVGID_8_">
			<use xlink:href="#SVGID_7_"  style="overflow:visible;"/>
		</clipPath>
		<rect x="737.1" y="223.5" class="st5" width="274.8" height="183.9"/>
	</g>
</g>
<g>
	<defs>
		<path id="SVGID_9_" d="M846.9,389.6c26.2,26.4,39.8,59.4,40.8,98.8c-1,39.4-14.6,72.3-40.8,98.8c-26.2,26.4-59.2,40.2-99.1,41.2
			H355c-28.9-1-53.1-11.2-72.6-30.7c-19.4-19.5-29.7-43.7-30.7-72.6c0.5-27.9,9.7-51.4,27.7-70.3c18-19,40.6-29.9,68.1-32.9
			c-1-5.5-1.5-11.2-1.5-17.2c1.5-49.9,18.8-91.4,52-124.6c33.2-33.2,74.5-50.2,123.8-51.3c41.9,0.5,78.1,13,108.5,37.4
			c30.4,24.4,50.9,56.1,61.4,95c17.5-8.5,36.2-12.7,56.1-12.7C787.7,349.4,820.8,363.1,846.9,389.6"/>
	</defs>
	<clipPath id="SVGID_10_">
		<use xlink:href="#SVGID_9_"  style="overflow:visible;"/>
	</clipPath>
	<g class="st6">
		<defs>
			<rect id="SVGID_11_" x="0" y="-0.2" width="1140" height="709.5"/>
		</defs>
		<clipPath id="SVGID_12_">
			<use xlink:href="#SVGID_11_"  style="overflow:visible;"/>
		</clipPath>
		<rect x="236.6" y="213.5" class="st7" width="666.3" height="429.9"/>
	</g>
</g>
<g>
	<defs>
		<path id="SVGID_13_" d="M262.2,204.3c1.3-16.6,7.4-30.6,18.4-41.8c10.9-11.3,24.6-17.6,40.9-18.9v27.4
			c-8.8,1.1-16.1,4.7-21.9,10.8c-5.9,6.1-9.4,13.6-10.4,22.5H262.2z"/>
	</defs>
	<clipPath id="SVGID_14_">
		<use xlink:href="#SVGID_13_"  style="overflow:visible;"/>
	</clipPath>
	<g class="st8">
		<defs>
			<rect id="SVGID_15_" x="0" y="-0.2" width="1140" height="709.5"/>
		</defs>
		<clipPath id="SVGID_16_">
			<use xlink:href="#SVGID_15_"  style="overflow:visible;"/>
		</clipPath>
		<rect x="247.1" y="128.4" class="st9" width="89.6" height="91"/>
	</g>
</g>
<g>
	<defs>
		<path id="SVGID_17_" d="M296.9,232c-2.2-2.7-4-5.8-5.4-9.1c-1.4-3.3-2.3-6.9-2.7-10.7H262c0.4,7.6,2,14.7,4.8,21.3
			c2.8,6.6,6.5,12.6,11.2,18L296.9,232z"/>
	</defs>
	<clipPath id="SVGID_18_">
		<use xlink:href="#SVGID_17_"  style="overflow:visible;"/>
	</clipPath>
	<g class="st10">
		<defs>
			<rect id="SVGID_19_" x="0" y="-0.2" width="1140" height="709.5"/>
		</defs>
		<clipPath id="SVGID_20_">
			<use xlink:href="#SVGID_19_"  style="overflow:visible;"/>
		</clipPath>
		<rect x="246.8" y="197.1" class="st11" width="65.3" height="69.6"/>
	</g>
</g>
<g>
	<defs>
		<path id="SVGID_21_" d="M328.5,143.9v27.4c9.6,1,17.4,5,23.6,11.9c6.2,6.9,9.4,15.3,9.6,25.3c-0.3,10.6-3.9,19.3-10.7,26.3
			c-6.9,7-15.5,10.7-25.8,11c-4.4,0-8.5-0.7-12.4-2.2c-3.9-1.5-7.4-3.5-10.6-6.2L283,256.8c5.7,5.2,12.1,9.2,19.3,12
			c7.2,2.8,14.8,4.3,22.8,4.3c18-0.5,33-6.8,44.9-18.9c11.9-12.1,18.1-27.4,18.6-45.7c-0.4-17.6-6.2-32.5-17.5-44.6
			C359.8,151.7,345.6,145.1,328.5,143.9"/>
	</defs>
	<clipPath id="SVGID_22_">
		<use xlink:href="#SVGID_21_"  style="overflow:visible;"/>
	</clipPath>
	<g class="st12">
		<defs>
			<rect id="SVGID_23_" x="0" y="-0.2" width="1140" height="709.5"/>
		</defs>
		<clipPath id="SVGID_24_">
			<use xlink:href="#SVGID_23_"  style="overflow:visible;"/>
		</clipPath>
		<rect x="267.8" y="128.7" class="st13" width="135.9" height="159.5"/>
	</g>
</g>
<g>
	<defs>
		<rect id="SVGID_25_" x="837.5" y="319.3" width="18" height="36"/>
	</defs>
	<clipPath id="SVGID_26_">
		<use xlink:href="#SVGID_25_"  style="overflow:visible;"/>
	</clipPath>
	<g class="st14">
		<defs>
			<rect id="SVGID_27_" x="136.4" y="69.5" width="861.1" height="560.9"/>
		</defs>
		<clipPath id="SVGID_28_">
			<use xlink:href="#SVGID_27_"  style="overflow:visible;"/>
		</clipPath>
		<rect x="822.3" y="304.1" class="st15" width="48.3" height="66.3"/>
	</g>
</g>
<g>
	<defs>
		<rect id="SVGID_29_" x="864.5" y="283.3" width="18" height="72"/>
	</defs>
	<clipPath id="SVGID_30_">
		<use xlink:href="#SVGID_29_"  style="overflow:visible;"/>
	</clipPath>
	<g class="st16">
		<defs>
			<rect id="SVGID_31_" x="136.4" y="69.5" width="861.1" height="560.9"/>
		</defs>
		<clipPath id="SVGID_32_">
			<use xlink:href="#SVGID_31_"  style="overflow:visible;"/>
		</clipPath>
		<rect x="849.3" y="268.1" class="st17" width="48.3" height="102.3"/>
	</g>
</g>
<g>
	<defs>
		<rect id="SVGID_33_" x="891.5" y="301.3" width="18" height="54"/>
	</defs>
	<clipPath id="SVGID_34_">
		<use xlink:href="#SVGID_33_"  style="overflow:visible;"/>
	</clipPath>
	<g class="st18">
		<defs>
			<rect id="SVGID_35_" x="136.4" y="69.5" width="861.1" height="560.9"/>
		</defs>
		<clipPath id="SVGID_36_">
			<use xlink:href="#SVGID_35_"  style="overflow:visible;"/>
		</clipPath>
		<rect x="876.3" y="286.1" class="st19" width="48.3" height="84.3"/>
	</g>
</g>
<g>
	<defs>
		<rect id="SVGID_37_" x="468.5" y="394.3" width="119" height="59"/>
	</defs>
	<clipPath id="SVGID_38_">
		<use xlink:href="#SVGID_37_"  style="overflow:visible;"/>
	</clipPath>
	<g class="st20">
		<defs>
			<rect id="SVGID_39_" x="136.4" y="69.5" width="861.1" height="560.9"/>
		</defs>
		<clipPath id="SVGID_40_">
			<use xlink:href="#SVGID_39_"  style="overflow:visible;"/>
		</clipPath>
		<rect x="453.3" y="379.1" class="st21" width="149.3" height="89.3"/>
	</g>
</g>
<g>
	<defs>
		<rect id="SVGID_41_" x="468.5" y="473.3" width="59" height="59"/>
	</defs>
	<clipPath id="SVGID_42_">
		<use xlink:href="#SVGID_41_"  style="overflow:visible;"/>
	</clipPath>
	<g class="st22">
		<defs>
			<rect id="SVGID_43_" x="136.4" y="69.5" width="861.1" height="560.9"/>
		</defs>
		<clipPath id="SVGID_44_">
			<use xlink:href="#SVGID_43_"  style="overflow:visible;"/>
		</clipPath>
		<rect x="453.3" y="458.1" class="st23" width="89.3" height="89.3"/>
	</g>
</g>
<g>
	<defs>
		<rect id="SVGID_45_" x="547.5" y="473.3" width="119" height="59"/>
	</defs>
	<clipPath id="SVGID_46_">
		<use xlink:href="#SVGID_45_"  style="overflow:visible;"/>
	</clipPath>
	<g class="st24">
		<defs>
			<rect id="SVGID_47_" x="136.4" y="69.5" width="861.1" height="560.9"/>
		</defs>
		<clipPath id="SVGID_48_">
			<use xlink:href="#SVGID_47_"  style="overflow:visible;"/>
		</clipPath>
		<rect x="532.3" y="458.1" class="st25" width="149.3" height="89.3"/>
	</g>
</g>
<g>
	<defs>
		<rect id="SVGID_49_" x="606.5" y="394.3" width="59" height="59"/>
	</defs>
	<clipPath id="SVGID_50_">
		<use xlink:href="#SVGID_49_"  style="overflow:visible;"/>
	</clipPath>
	<g class="st26">
		<defs>
			<rect id="SVGID_51_" x="136.4" y="69.5" width="861.1" height="560.9"/>
		</defs>
		<clipPath id="SVGID_52_">
			<use xlink:href="#SVGID_51_"  style="overflow:visible;"/>
		</clipPath>
		<rect x="591.3" y="379.1" class="st27" width="89.3" height="89.3"/>
	</g>
</g>
<rect x="466.9" y="281.7" class="st28" width="442.7" height="251.7"/>
</svg>
